<svg xmlns="http://www.w3.org/2000/svg" xmlns:xlink="http://www.w3.org/1999/xlink" width="491" zoomAndPan="magnify" viewBox="0 0 368.25 252.749997" height="337" preserveAspectRatio="xMidYMid meet" version="1.0"><defs><filter x="0%" y="0%" width="100%" height="100%" id="e7abcaa6a1"><feColorMatrix values="0 0 0 0 1 0 0 0 0 1 0 0 0 0 1 0 0 0 1 0" color-interpolation-filters="sRGB"/></filter><clipPath id="8becc3047c"><path d="M 0 0.132812 L 367.5 0.132812 L 367.5 252.367188 L 0 252.367188 Z M 0 0.132812 " clip-rule="nonzero"/></clipPath><clipPath id="96d37b9a2e"><path d="M 82 17.492188 L 286 17.492188 L 286 221.074219 L 82 221.074219 Z M 82 17.492188 " clip-rule="nonzero"/></clipPath><clipPath id="4637f2dfd5"><path d="M 68.785156 87 L 119 87 L 119 155 L 68.785156 155 Z M 68.785156 87 " clip-rule="nonzero"/></clipPath><clipPath id="32e22aa8df"><path d="M 249 87 L 298.566406 87 L 298.566406 154 L 249 154 Z M 249 87 " clip-rule="nonzero"/></clipPath><clipPath id="4c546f59b5"><path d="M 283 87 L 298.566406 87 L 298.566406 103 L 283 103 Z M 283 87 " clip-rule="nonzero"/></clipPath><clipPath id="c19499d09f"><path d="M 249 87 L 298.566406 87 L 298.566406 155 L 249 155 Z M 249 87 " clip-rule="nonzero"/></clipPath><mask id="244485ffd3"><g filter="url(#e7abcaa6a1)"><rect x="-36.825" width="441.9" fill="#000000" y="-25.275" height="303.299996" fill-opacity="0.4"/></g></mask><clipPath id="36c0508721"><path d="M 0.078125 0.492188 L 9 0.492188 L 9 5.523438 L 0.078125 5.523438 Z M 0.078125 0.492188 " clip-rule="nonzero"/></clipPath><clipPath id="8fc94b54c6"><path d="M 41 0.492188 L 50 0.492188 L 50 5.523438 L 41 5.523438 Z M 41 0.492188 " clip-rule="nonzero"/></clipPath><clipPath id="96183dcef7"><rect x="0" width="51" y="0" height="6"/></clipPath></defs><g clip-path="url(#8becc3047c)"><path fill="#ffffff" d="M 0 0.132812 L 367.5 0.132812 L 367.5 252.367188 L 0 252.367188 Z M 0 0.132812 " fill-opacity="1" fill-rule="nonzero"/></g><g clip-path="url(#96d37b9a2e)"><path fill="#ffffff" d="M 285.226562 119.300781 C 285.226562 120.964844 285.1875 122.628906 285.105469 124.292969 C 285.023438 125.957031 284.902344 127.617188 284.738281 129.273438 C 284.574219 130.933594 284.371094 132.585938 284.128906 134.230469 C 283.882812 135.878906 283.601562 137.519531 283.277344 139.152344 C 282.953125 140.785156 282.585938 142.410156 282.183594 144.027344 C 281.78125 145.640625 281.335938 147.246094 280.855469 148.839844 C 280.371094 150.433594 279.851562 152.015625 279.289062 153.582031 C 278.730469 155.152344 278.132812 156.707031 277.496094 158.242188 C 276.859375 159.78125 276.1875 161.304688 275.476562 162.8125 C 274.765625 164.316406 274.019531 165.804688 273.234375 167.273438 C 272.453125 168.742188 271.632812 170.191406 270.777344 171.617188 C 269.921875 173.046875 269.035156 174.453125 268.113281 175.839844 C 267.1875 177.222656 266.230469 178.585938 265.242188 179.921875 C 264.25 181.261719 263.230469 182.574219 262.175781 183.859375 C 261.121094 185.148438 260.035156 186.410156 258.917969 187.640625 C 257.800781 188.875 256.65625 190.082031 255.480469 191.261719 C 254.304688 192.4375 253.101562 193.585938 251.871094 194.703125 C 250.640625 195.824219 249.382812 196.910156 248.097656 197.96875 C 246.8125 199.023438 245.5 200.046875 244.167969 201.039062 C 242.832031 202.03125 241.472656 202.992188 240.089844 203.917969 C 238.710938 204.839844 237.304688 205.730469 235.878906 206.589844 C 234.453125 207.445312 233.007812 208.265625 231.542969 209.050781 C 230.078125 209.835938 228.59375 210.585938 227.089844 211.296875 C 225.585938 212.007812 224.070312 212.683594 222.53125 213.320312 C 220.996094 213.957031 219.445312 214.558594 217.882812 215.117188 C 216.316406 215.679688 214.738281 216.203125 213.148438 216.683594 C 211.558594 217.167969 209.957031 217.613281 208.34375 218.015625 C 206.730469 218.421875 205.109375 218.785156 203.480469 219.113281 C 201.851562 219.4375 200.214844 219.722656 198.570312 219.964844 C 196.925781 220.210938 195.277344 220.414062 193.621094 220.578125 C 191.96875 220.742188 190.3125 220.863281 188.652344 220.945312 C 186.992188 221.027344 185.328125 221.066406 183.667969 221.066406 C 182.003906 221.066406 180.34375 221.027344 178.683594 220.945312 C 177.023438 220.863281 175.367188 220.742188 173.714844 220.578125 C 172.058594 220.414062 170.410156 220.210938 168.765625 219.964844 C 167.121094 219.722656 165.484375 219.4375 163.855469 219.113281 C 162.222656 218.785156 160.601562 218.421875 158.992188 218.015625 C 157.378906 217.613281 155.777344 217.167969 154.1875 216.683594 C 152.597656 216.203125 151.019531 215.679688 149.453125 215.117188 C 147.886719 214.558594 146.339844 213.957031 144.800781 213.320312 C 143.265625 212.683594 141.746094 212.007812 140.246094 211.296875 C 138.742188 210.585938 137.257812 209.835938 135.792969 209.050781 C 134.328125 208.265625 132.882812 207.445312 131.457031 206.589844 C 130.03125 205.730469 128.625 204.839844 127.242188 203.917969 C 125.863281 202.992188 124.503906 202.03125 123.167969 201.039062 C 121.832031 200.046875 120.523438 199.023438 119.238281 197.96875 C 117.953125 196.910156 116.695312 195.824219 115.464844 194.703125 C 114.234375 193.585938 113.027344 192.4375 111.855469 191.261719 C 110.679688 190.082031 109.53125 188.875 108.417969 187.640625 C 107.300781 186.410156 106.214844 185.148438 105.160156 183.859375 C 104.105469 182.574219 103.085938 181.261719 102.09375 179.921875 C 101.105469 178.585938 100.148438 177.222656 99.222656 175.839844 C 98.300781 174.453125 97.410156 173.046875 96.558594 171.617188 C 95.703125 170.191406 94.882812 168.742188 94.101562 167.273438 C 93.316406 165.804688 92.570312 164.316406 91.859375 162.8125 C 91.148438 161.304688 90.476562 159.78125 89.839844 158.242188 C 89.203125 156.707031 88.605469 155.152344 88.042969 153.582031 C 87.484375 152.015625 86.964844 150.433594 86.480469 148.839844 C 86 147.246094 85.554688 145.640625 85.152344 144.027344 C 84.746094 142.410156 84.382812 140.785156 84.058594 139.152344 C 83.734375 137.519531 83.449219 135.878906 83.207031 134.230469 C 82.964844 132.585938 82.757812 130.933594 82.597656 129.273438 C 82.433594 127.617188 82.3125 125.957031 82.230469 124.292969 C 82.148438 122.628906 82.109375 120.964844 82.109375 119.300781 C 82.109375 117.632812 82.148438 115.96875 82.230469 114.304688 C 82.3125 112.640625 82.433594 110.980469 82.597656 109.324219 C 82.757812 107.667969 82.964844 106.015625 83.207031 104.367188 C 83.449219 102.71875 83.734375 101.078125 84.058594 99.445312 C 84.382812 97.8125 84.746094 96.1875 85.152344 94.570312 C 85.554688 92.957031 86 91.351562 86.480469 89.757812 C 86.964844 88.164062 87.484375 86.582031 88.042969 85.015625 C 88.605469 83.445312 89.203125 81.894531 89.839844 80.355469 C 90.476562 78.816406 91.148438 77.292969 91.859375 75.789062 C 92.570312 74.28125 93.316406 72.796875 94.101562 71.328125 C 94.882812 69.855469 95.703125 68.410156 96.558594 66.980469 C 97.410156 65.550781 98.300781 64.144531 99.222656 62.761719 C 100.148438 61.375 101.105469 60.015625 102.09375 58.675781 C 103.085938 57.339844 104.105469 56.027344 105.160156 54.738281 C 106.214844 53.449219 107.300781 52.191406 108.417969 50.957031 C 109.53125 49.722656 110.679688 48.515625 111.855469 47.339844 C 113.027344 46.160156 114.234375 45.011719 115.464844 43.894531 C 116.695312 42.777344 117.953125 41.6875 119.238281 40.632812 C 120.523438 39.574219 121.832031 38.550781 123.167969 37.558594 C 124.503906 36.566406 125.863281 35.609375 127.242188 34.683594 C 128.625 33.757812 130.03125 32.867188 131.457031 32.011719 C 132.882812 31.152344 134.328125 30.332031 135.792969 29.546875 C 137.257812 28.761719 138.742188 28.015625 140.246094 27.300781 C 141.746094 26.589844 143.265625 25.914062 144.800781 25.277344 C 146.339844 24.640625 147.886719 24.042969 149.453125 23.480469 C 151.019531 22.917969 152.597656 22.398438 154.1875 21.914062 C 155.777344 21.429688 157.378906 20.984375 158.992188 20.582031 C 160.601562 20.175781 162.222656 19.8125 163.855469 19.488281 C 165.484375 19.160156 167.121094 18.878906 168.765625 18.632812 C 170.410156 18.386719 172.058594 18.183594 173.714844 18.019531 C 175.367188 17.859375 177.023438 17.734375 178.683594 17.652344 C 180.34375 17.570312 182.003906 17.53125 183.667969 17.53125 C 185.328125 17.53125 186.992188 17.570312 188.652344 17.652344 C 190.3125 17.734375 191.96875 17.859375 193.621094 18.019531 C 195.277344 18.183594 196.925781 18.386719 198.570312 18.632812 C 200.214844 18.878906 201.851562 19.160156 203.480469 19.488281 C 205.109375 19.8125 206.730469 20.175781 208.34375 20.582031 C 209.957031 20.984375 211.558594 21.429688 213.148438 21.914062 C 214.738281 22.398438 216.316406 22.917969 217.882812 23.480469 C 219.445312 24.042969 220.996094 24.640625 222.53125 25.277344 C 224.066406 25.914062 225.585938 26.589844 227.089844 27.300781 C 228.59375 28.015625 230.078125 28.761719 231.542969 29.546875 C 233.007812 30.332031 234.453125 31.152344 235.878906 32.011719 C 237.304688 32.867188 238.710938 33.757812 240.089844 34.683594 C 241.472656 35.609375 242.832031 36.566406 244.167969 37.558594 C 245.5 38.550781 246.8125 39.574219 248.097656 40.632812 C 249.382812 41.6875 250.640625 42.777344 251.871094 43.894531 C 253.101562 45.011719 254.304688 46.160156 255.480469 47.339844 C 256.65625 48.515625 257.800781 49.722656 258.917969 50.957031 C 260.035156 52.191406 261.121094 53.449219 262.175781 54.738281 C 263.230469 56.027344 264.25 57.339844 265.242188 58.675781 C 266.230469 60.015625 267.1875 61.375 268.113281 62.761719 C 269.035156 64.144531 269.921875 65.550781 270.777344 66.980469 C 271.632812 68.410156 272.453125 69.855469 273.234375 71.328125 C 274.019531 72.796875 274.765625 74.28125 275.476562 75.789062 C 276.1875 77.292969 276.859375 78.816406 277.496094 80.355469 C 278.132812 81.894531 278.730469 83.445312 279.289062 85.015625 C 279.851562 86.582031 280.371094 88.164062 280.855469 89.757812 C 281.335938 91.351562 281.78125 92.957031 282.183594 94.570312 C 282.585938 96.1875 282.953125 97.8125 283.277344 99.445312 C 283.601562 101.078125 283.882812 102.71875 284.128906 104.367188 C 284.371094 106.015625 284.574219 107.667969 284.738281 109.324219 C 284.902344 110.980469 285.023438 112.640625 285.105469 114.304688 C 285.1875 115.96875 285.226562 117.632812 285.226562 119.300781 Z M 285.226562 119.300781 " fill-opacity="1" fill-rule="nonzero"/><path fill="#367cff" d="M 285.226562 119.300781 C 285.226562 120.964844 285.1875 122.628906 285.105469 124.292969 C 285.023438 125.957031 284.902344 127.617188 284.738281 129.273438 C 284.574219 130.933594 284.371094 132.585938 284.128906 134.230469 C 283.882812 135.878906 283.601562 137.519531 283.277344 139.152344 C 282.953125 140.785156 282.585938 142.410156 282.183594 144.027344 C 281.78125 145.640625 281.335938 147.246094 280.855469 148.839844 C 280.371094 150.433594 279.851562 152.015625 279.289062 153.582031 C 278.730469 155.152344 278.132812 156.707031 277.496094 158.242188 C 276.859375 159.78125 276.1875 161.304688 275.476562 162.8125 C 274.765625 164.316406 274.019531 165.804688 273.234375 167.273438 C 272.453125 168.742188 271.632812 170.191406 270.777344 171.617188 C 269.921875 173.046875 269.035156 174.453125 268.113281 175.839844 C 267.1875 177.222656 266.230469 178.585938 265.242188 179.921875 C 264.25 181.261719 263.230469 182.574219 262.175781 183.859375 C 261.121094 185.148438 260.035156 186.410156 258.917969 187.640625 C 257.800781 188.875 256.65625 190.082031 255.480469 191.261719 C 254.304688 192.4375 253.101562 193.585938 251.871094 194.703125 C 250.640625 195.824219 249.382812 196.910156 248.097656 197.96875 C 246.8125 199.023438 245.5 200.046875 244.167969 201.039062 C 242.832031 202.03125 241.472656 202.992188 240.089844 203.917969 C 238.710938 204.839844 237.304688 205.730469 235.878906 206.589844 C 234.453125 207.445312 233.007812 208.265625 231.542969 209.050781 C 230.078125 209.835938 228.59375 210.585938 227.089844 211.296875 C 225.585938 212.007812 224.070312 212.683594 222.53125 213.320312 C 220.996094 213.957031 219.445312 214.558594 217.882812 215.117188 C 216.316406 215.679688 214.738281 216.203125 213.148438 216.683594 C 211.558594 217.167969 209.957031 217.613281 208.34375 218.015625 C 206.730469 218.421875 205.109375 218.785156 203.480469 219.113281 C 201.851562 219.4375 200.214844 219.722656 198.570312 219.964844 C 196.925781 220.210938 195.277344 220.414062 193.621094 220.578125 C 191.96875 220.742188 190.3125 220.863281 188.652344 220.945312 C 186.992188 221.027344 185.328125 221.066406 183.667969 221.066406 C 182.003906 221.066406 180.34375 221.027344 178.683594 220.945312 C 177.023438 220.863281 175.367188 220.742188 173.714844 220.578125 C 172.058594 220.414062 170.410156 220.210938 168.765625 219.964844 C 167.121094 219.722656 165.484375 219.4375 163.855469 219.113281 C 162.222656 218.785156 160.601562 218.421875 158.992188 218.015625 C 157.378906 217.613281 155.777344 217.167969 154.1875 216.683594 C 152.597656 216.203125 151.019531 215.679688 149.453125 215.117188 C 147.886719 214.558594 146.339844 213.957031 144.800781 213.320312 C 143.265625 212.683594 141.746094 212.007812 140.246094 211.296875 C 138.742188 210.585938 137.257812 209.835938 135.792969 209.050781 C 134.328125 208.265625 132.882812 207.445312 131.457031 206.589844 C 130.03125 205.730469 128.625 204.839844 127.242188 203.917969 C 125.863281 202.992188 124.503906 202.03125 123.167969 201.039062 C 121.832031 200.046875 120.523438 199.023438 119.238281 197.96875 C 117.953125 196.910156 116.695312 195.824219 115.464844 194.703125 C 114.234375 193.585938 113.027344 192.4375 111.855469 191.261719 C 110.679688 190.082031 109.53125 188.875 108.417969 187.640625 C 107.300781 186.410156 106.214844 185.148438 105.160156 183.859375 C 104.105469 182.574219 103.085938 181.261719 102.09375 179.921875 C 101.105469 178.585938 100.148438 177.222656 99.222656 175.839844 C 98.300781 174.453125 97.410156 173.046875 96.558594 171.617188 C 95.703125 170.191406 94.882812 168.742188 94.101562 167.273438 C 93.316406 165.804688 92.570312 164.316406 91.859375 162.8125 C 91.148438 161.304688 90.476562 159.78125 89.839844 158.242188 C 89.203125 156.707031 88.605469 155.152344 88.042969 153.582031 C 87.484375 152.015625 86.964844 150.433594 86.480469 148.839844 C 86 147.246094 85.554688 145.640625 85.152344 144.027344 C 84.746094 142.410156 84.382812 140.785156 84.058594 139.152344 C 83.734375 137.519531 83.449219 135.878906 83.207031 134.230469 C 82.964844 132.585938 82.757812 130.933594 82.597656 129.273438 C 82.433594 127.617188 82.3125 125.957031 82.230469 124.292969 C 82.148438 122.628906 82.109375 120.964844 82.109375 119.300781 C 82.109375 117.632812 82.148438 115.96875 82.230469 114.304688 C 82.3125 112.640625 82.433594 110.980469 82.597656 109.324219 C 82.757812 107.667969 82.964844 106.015625 83.207031 104.367188 C 83.449219 102.71875 83.734375 101.078125 84.058594 99.445312 C 84.382812 97.8125 84.746094 96.1875 85.152344 94.570312 C 85.554688 92.957031 86 91.351562 86.480469 89.757812 C 86.964844 88.164062 87.484375 86.582031 88.042969 85.015625 C 88.605469 83.445312 89.203125 81.894531 89.839844 80.355469 C 90.476562 78.816406 91.148438 77.292969 91.859375 75.789062 C 92.570312 74.28125 93.316406 72.796875 94.101562 71.328125 C 94.882812 69.855469 95.703125 68.410156 96.558594 66.980469 C 97.410156 65.550781 98.300781 64.144531 99.222656 62.761719 C 100.148438 61.375 101.105469 60.015625 102.09375 58.675781 C 103.085938 57.339844 104.105469 56.027344 105.160156 54.738281 C 106.214844 53.449219 107.300781 52.191406 108.417969 50.957031 C 109.53125 49.722656 110.679688 48.515625 111.855469 47.339844 C 113.027344 46.160156 114.234375 45.011719 115.464844 43.894531 C 116.695312 42.777344 117.953125 41.6875 119.238281 40.632812 C 120.523438 39.574219 121.832031 38.550781 123.167969 37.558594 C 124.503906 36.566406 125.863281 35.609375 127.242188 34.683594 C 128.625 33.757812 130.03125 32.867188 131.457031 32.011719 C 132.882812 31.152344 134.328125 30.332031 135.792969 29.546875 C 137.257812 28.761719 138.742188 28.015625 140.246094 27.300781 C 141.746094 26.589844 143.265625 25.914062 144.800781 25.277344 C 146.339844 24.640625 147.886719 24.042969 149.453125 23.480469 C 151.019531 22.917969 152.597656 22.398438 154.1875 21.914062 C 155.777344 21.429688 157.378906 20.984375 158.992188 20.582031 C 160.601562 20.175781 162.222656 19.8125 163.855469 19.488281 C 165.484375 19.160156 167.121094 18.878906 168.765625 18.632812 C 170.410156 18.386719 172.058594 18.183594 173.714844 18.019531 C 175.367188 17.859375 177.023438 17.734375 178.683594 17.652344 C 180.34375 17.570312 182.003906 17.53125 183.667969 17.53125 C 185.328125 17.53125 186.992188 17.570312 188.652344 17.652344 C 190.3125 17.734375 191.96875 17.859375 193.621094 18.019531 C 195.277344 18.183594 196.925781 18.386719 198.570312 18.632812 C 200.214844 18.878906 201.851562 19.160156 203.480469 19.488281 C 205.109375 19.8125 206.730469 20.175781 208.34375 20.582031 C 209.957031 20.984375 211.558594 21.429688 213.148438 21.914062 C 214.738281 22.398438 216.316406 22.917969 217.882812 23.480469 C 219.445312 24.042969 220.996094 24.640625 222.53125 25.277344 C 224.066406 25.914062 225.585938 26.589844 227.089844 27.300781 C 228.59375 28.015625 230.078125 28.761719 231.542969 29.546875 C 233.007812 30.332031 234.453125 31.152344 235.878906 32.011719 C 237.304688 32.867188 238.710938 33.757812 240.089844 34.683594 C 241.472656 35.609375 242.832031 36.566406 244.167969 37.558594 C 245.5 38.550781 246.8125 39.574219 248.097656 40.632812 C 249.382812 41.6875 250.640625 42.777344 251.871094 43.894531 C 253.101562 45.011719 254.304688 46.160156 255.480469 47.339844 C 256.65625 48.515625 257.800781 49.722656 258.917969 50.957031 C 260.035156 52.191406 261.121094 53.449219 262.175781 54.738281 C 263.230469 56.027344 264.25 57.339844 265.242188 58.675781 C 266.230469 60.015625 267.1875 61.375 268.113281 62.761719 C 269.035156 64.144531 269.921875 65.550781 270.777344 66.980469 C 271.632812 68.410156 272.453125 69.855469 273.234375 71.328125 C 274.019531 72.796875 274.765625 74.28125 275.476562 75.789062 C 276.1875 77.292969 276.859375 78.816406 277.496094 80.355469 C 278.132812 81.894531 278.730469 83.445312 279.289062 85.015625 C 279.851562 86.582031 280.371094 88.164062 280.855469 89.757812 C 281.335938 91.351562 281.78125 92.957031 282.183594 94.570312 C 282.585938 96.1875 282.953125 97.8125 283.277344 99.445312 C 283.601562 101.078125 283.882812 102.71875 284.128906 104.367188 C 284.371094 106.015625 284.574219 107.667969 284.738281 109.324219 C 284.902344 110.980469 285.023438 112.640625 285.105469 114.304688 C 285.1875 115.96875 285.226562 117.632812 285.226562 119.300781 Z M 285.226562 119.300781 " fill-opacity="0.1" fill-rule="nonzero"/></g><path fill="#ffffff" d="M 117.664062 153.863281 L 69.09375 153.71875 L 69.292969 87.601562 L 102.878906 87.703125 L 117.816406 102.765625 Z M 117.664062 153.863281 " fill-opacity="1" fill-rule="nonzero"/><path fill="#367cff" d="M 102.878906 87.703125 L 102.832031 102.71875 L 117.816406 102.765625 Z M 102.878906 87.703125 " fill-opacity="0.3" fill-rule="nonzero"/><g clip-path="url(#4637f2dfd5)"><path fill="#262626" d="M 118.125 102.746094 C 118.121094 102.71875 118.117188 102.691406 118.109375 102.667969 C 118.105469 102.65625 118.101562 102.648438 118.097656 102.636719 C 118.082031 102.601562 118.0625 102.574219 118.035156 102.546875 L 103.097656 87.484375 C 103.070312 87.457031 103.042969 87.4375 103.007812 87.421875 C 102.996094 87.417969 102.988281 87.414062 102.976562 87.414062 C 102.953125 87.402344 102.925781 87.398438 102.898438 87.394531 C 102.890625 87.394531 102.886719 87.390625 102.878906 87.390625 L 69.296875 87.292969 C 69.210938 87.292969 69.136719 87.320312 69.078125 87.382812 C 69.015625 87.441406 68.984375 87.515625 68.984375 87.601562 L 68.785156 153.714844 C 68.785156 153.800781 68.816406 153.875 68.875 153.933594 C 68.9375 153.996094 69.007812 154.027344 69.09375 154.027344 L 117.660156 154.175781 C 117.746094 154.175781 117.820312 154.144531 117.878906 154.082031 C 117.941406 154.023438 117.972656 153.949219 117.972656 153.863281 L 118.125 102.765625 C 118.128906 102.757812 118.125 102.753906 118.125 102.746094 Z M 103.183594 88.453125 L 110.082031 95.40625 L 117.070312 102.453125 L 103.144531 102.410156 Z M 69.402344 153.40625 L 69.601562 87.914062 L 102.566406 88.011719 L 102.523438 102.71875 C 102.523438 102.804688 102.554688 102.875 102.613281 102.9375 C 102.671875 102.996094 102.746094 103.027344 102.832031 103.027344 L 117.507812 103.074219 L 117.355469 153.554688 Z M 69.402344 153.40625 " fill-opacity="1" fill-rule="nonzero"/></g><path fill="#ffffff" d="M 216.679688 151.21875 L 150.445312 151.019531 L 150.71875 60.859375 L 196.515625 60.996094 L 216.890625 81.535156 Z M 216.679688 151.21875 " fill-opacity="1" fill-rule="nonzero"/><path fill="#367cff" d="M 196.515625 60.996094 L 196.453125 81.472656 L 216.890625 81.535156 Z M 196.515625 60.996094 " fill-opacity="0.3" fill-rule="nonzero"/><path fill="#262626" d="M 217.195312 81.515625 C 217.191406 81.488281 217.1875 81.464844 217.179688 81.4375 C 217.175781 81.425781 217.171875 81.417969 217.167969 81.40625 C 217.152344 81.371094 217.132812 81.34375 217.109375 81.316406 L 196.734375 60.777344 C 196.710938 60.75 196.679688 60.730469 196.644531 60.714844 C 196.636719 60.710938 196.625 60.710938 196.617188 60.707031 C 196.589844 60.695312 196.5625 60.691406 196.535156 60.6875 C 196.53125 60.6875 196.523438 60.683594 196.515625 60.683594 L 150.71875 60.546875 C 150.632812 60.546875 150.5625 60.578125 150.5 60.636719 C 150.441406 60.699219 150.410156 60.769531 150.410156 60.855469 L 150.136719 151.015625 C 150.136719 151.101562 150.167969 151.175781 150.226562 151.234375 C 150.289062 151.296875 150.363281 151.324219 150.445312 151.324219 L 216.679688 151.527344 C 216.761719 151.527344 216.835938 151.496094 216.898438 151.4375 C 216.957031 151.375 216.988281 151.300781 216.988281 151.21875 L 217.199219 81.535156 C 217.199219 81.53125 217.195312 81.523438 217.195312 81.515625 Z M 196.824219 61.746094 L 216.140625 81.222656 L 196.765625 81.164062 Z M 150.757812 150.707031 L 151.027344 61.167969 L 196.207031 61.308594 L 196.144531 81.472656 C 196.144531 81.558594 196.175781 81.632812 196.234375 81.691406 C 196.296875 81.753906 196.367188 81.78125 196.453125 81.78125 L 216.578125 81.84375 L 216.371094 150.90625 Z M 150.757812 150.707031 " fill-opacity="1" fill-rule="nonzero"/><g clip-path="url(#32e22aa8df)"><path fill="#ffffff" d="M 298.085938 153.863281 L 249.515625 153.71875 L 249.71875 87.601562 L 283.300781 87.703125 L 298.242188 102.765625 Z M 298.085938 153.863281 " fill-opacity="1" fill-rule="nonzero"/></g><g clip-path="url(#4c546f59b5)"><path fill="#367cff" d="M 283.300781 87.703125 L 283.257812 102.71875 L 298.242188 102.765625 Z M 283.300781 87.703125 " fill-opacity="0.3" fill-rule="nonzero"/></g><g clip-path="url(#c19499d09f)"><path fill="#262626" d="M 298.546875 102.746094 C 298.542969 102.71875 298.539062 102.691406 298.53125 102.667969 C 298.527344 102.65625 298.523438 102.648438 298.519531 102.636719 C 298.507812 102.601562 298.484375 102.574219 298.460938 102.546875 L 283.519531 87.484375 C 283.496094 87.457031 283.464844 87.4375 283.429688 87.421875 C 283.421875 87.417969 283.410156 87.414062 283.402344 87.414062 C 283.375 87.402344 283.347656 87.398438 283.320312 87.394531 C 283.316406 87.394531 283.308594 87.390625 283.300781 87.390625 L 249.71875 87.289062 C 249.632812 87.289062 249.558594 87.320312 249.5 87.382812 C 249.4375 87.441406 249.410156 87.515625 249.410156 87.601562 L 249.210938 153.714844 C 249.207031 153.800781 249.238281 153.875 249.300781 153.933594 C 249.359375 153.996094 249.433594 154.027344 249.519531 154.027344 L 298.085938 154.171875 C 298.171875 154.171875 298.246094 154.144531 298.304688 154.082031 C 298.367188 154.023438 298.398438 153.949219 298.398438 153.863281 L 298.550781 102.761719 C 298.550781 102.757812 298.546875 102.753906 298.546875 102.746094 Z M 283.609375 88.453125 L 290.503906 95.40625 L 297.496094 102.453125 L 283.566406 102.410156 Z M 249.828125 153.40625 L 250.027344 87.914062 L 282.992188 88.011719 L 282.945312 102.71875 C 282.945312 102.804688 282.976562 102.875 283.039062 102.9375 C 283.097656 102.996094 283.171875 103.027344 283.257812 103.027344 L 297.933594 103.074219 L 297.78125 153.554688 Z M 249.828125 153.40625 " fill-opacity="1" fill-rule="nonzero"/></g><path fill="#292a2e" d="M 171.761719 108.753906 C 171.761719 109.058594 171.730469 109.359375 171.671875 109.660156 C 171.613281 109.960938 171.523438 110.25 171.410156 110.53125 C 171.292969 110.8125 171.148438 111.082031 170.980469 111.335938 C 170.8125 111.589844 170.617188 111.824219 170.402344 112.039062 C 170.1875 112.253906 169.953125 112.445312 169.699219 112.617188 C 169.449219 112.785156 169.179688 112.929688 168.898438 113.046875 C 168.617188 113.164062 168.328125 113.25 168.027344 113.308594 C 167.730469 113.371094 167.429688 113.398438 167.125 113.398438 C 166.820312 113.398438 166.519531 113.371094 166.21875 113.308594 C 165.921875 113.25 165.632812 113.164062 165.351562 113.046875 C 165.070312 112.929688 164.800781 112.785156 164.546875 112.617188 C 164.296875 112.445312 164.0625 112.253906 163.847656 112.039062 C 163.632812 111.824219 163.4375 111.589844 163.269531 111.335938 C 163.101562 111.082031 162.957031 110.8125 162.839844 110.53125 C 162.726562 110.25 162.636719 109.957031 162.578125 109.660156 C 162.519531 109.359375 162.488281 109.058594 162.488281 108.753906 C 162.488281 108.449219 162.519531 108.144531 162.578125 107.847656 C 162.636719 107.546875 162.726562 107.257812 162.839844 106.976562 C 162.957031 106.695312 163.101562 106.425781 163.269531 106.171875 C 163.4375 105.917969 163.632812 105.683594 163.847656 105.46875 C 164.0625 105.253906 164.296875 105.058594 164.546875 104.890625 C 164.800781 104.722656 165.070312 104.578125 165.351562 104.460938 C 165.632812 104.34375 165.921875 104.257812 166.21875 104.195312 C 166.519531 104.136719 166.820312 104.109375 167.125 104.109375 C 167.429688 104.109375 167.730469 104.136719 168.027344 104.195312 C 168.328125 104.257812 168.617188 104.34375 168.898438 104.460938 C 169.179688 104.578125 169.449219 104.722656 169.699219 104.890625 C 169.953125 105.058594 170.1875 105.253906 170.402344 105.46875 C 170.617188 105.683594 170.8125 105.917969 170.980469 106.171875 C 171.148438 106.425781 171.292969 106.695312 171.410156 106.976562 C 171.523438 107.257812 171.613281 107.546875 171.671875 107.847656 C 171.730469 108.144531 171.761719 108.449219 171.761719 108.753906 Z M 171.761719 108.753906 " fill-opacity="1" fill-rule="nonzero"/><path fill="#292a2e" d="M 203.554688 108.753906 C 203.554688 109.058594 203.523438 109.359375 203.464844 109.660156 C 203.40625 109.960938 203.316406 110.25 203.199219 110.53125 C 203.082031 110.8125 202.941406 111.082031 202.773438 111.335938 C 202.601562 111.589844 202.410156 111.824219 202.195312 112.039062 C 201.980469 112.253906 201.746094 112.445312 201.492188 112.617188 C 201.238281 112.785156 200.972656 112.929688 200.691406 113.046875 C 200.410156 113.164062 200.121094 113.25 199.820312 113.308594 C 199.523438 113.371094 199.222656 113.398438 198.917969 113.398438 C 198.613281 113.398438 198.3125 113.371094 198.011719 113.308594 C 197.714844 113.25 197.421875 113.164062 197.140625 113.046875 C 196.859375 112.929688 196.59375 112.785156 196.339844 112.617188 C 196.085938 112.445312 195.855469 112.253906 195.636719 112.039062 C 195.421875 111.824219 195.230469 111.589844 195.0625 111.335938 C 194.890625 111.082031 194.75 110.8125 194.632812 110.53125 C 194.515625 110.25 194.429688 109.957031 194.371094 109.660156 C 194.308594 109.359375 194.28125 109.058594 194.28125 108.753906 C 194.28125 108.449219 194.308594 108.144531 194.371094 107.847656 C 194.429688 107.546875 194.515625 107.257812 194.632812 106.976562 C 194.75 106.695312 194.890625 106.425781 195.0625 106.171875 C 195.230469 105.917969 195.421875 105.683594 195.636719 105.46875 C 195.855469 105.253906 196.085938 105.058594 196.339844 104.890625 C 196.59375 104.722656 196.859375 104.578125 197.140625 104.460938 C 197.421875 104.34375 197.714844 104.257812 198.011719 104.195312 C 198.3125 104.136719 198.613281 104.109375 198.917969 104.109375 C 199.222656 104.109375 199.523438 104.136719 199.820312 104.195312 C 200.121094 104.257812 200.410156 104.34375 200.691406 104.460938 C 200.972656 104.578125 201.238281 104.722656 201.492188 104.890625 C 201.746094 105.058594 201.980469 105.253906 202.195312 105.46875 C 202.410156 105.683594 202.601562 105.917969 202.773438 106.171875 C 202.941406 106.425781 203.082031 106.695312 203.199219 106.976562 C 203.316406 107.257812 203.40625 107.546875 203.464844 107.847656 C 203.523438 108.144531 203.554688 108.449219 203.554688 108.753906 Z M 203.554688 108.753906 " fill-opacity="1" fill-rule="nonzero"/><path fill="#262626" d="M 189.238281 121.601562 L 176.804688 121.601562 C 176.71875 121.601562 176.644531 121.570312 176.585938 121.511719 C 176.527344 121.449219 176.496094 121.378906 176.496094 121.292969 C 176.496094 121.207031 176.527344 121.132812 176.585938 121.074219 C 176.644531 121.011719 176.71875 120.980469 176.804688 120.980469 L 189.238281 120.980469 C 189.320312 120.980469 189.394531 121.011719 189.457031 121.074219 C 189.515625 121.132812 189.546875 121.207031 189.546875 121.292969 C 189.546875 121.378906 189.515625 121.449219 189.457031 121.511719 C 189.394531 121.570312 189.320312 121.601562 189.238281 121.601562 Z M 189.238281 121.601562 " fill-opacity="1" fill-rule="nonzero"/><path fill="#ffffff" d="M 166.476562 119.863281 C 166.476562 120.152344 166.371094 120.429688 166.164062 120.695312 C 165.953125 120.964844 165.652344 121.199219 165.265625 121.402344 C 164.878906 121.609375 164.429688 121.765625 163.925781 121.878906 C 163.417969 121.988281 162.890625 122.042969 162.34375 122.042969 C 161.792969 122.042969 161.265625 121.988281 160.757812 121.878906 C 160.253906 121.765625 159.804688 121.609375 159.417969 121.402344 C 159.03125 121.199219 158.730469 120.964844 158.519531 120.695312 C 158.3125 120.429688 158.207031 120.152344 158.207031 119.863281 C 158.207031 119.574219 158.3125 119.292969 158.519531 119.027344 C 158.730469 118.761719 159.03125 118.523438 159.417969 118.320312 C 159.804688 118.113281 160.253906 117.957031 160.757812 117.847656 C 161.265625 117.734375 161.792969 117.679688 162.34375 117.679688 C 162.890625 117.679688 163.417969 117.734375 163.925781 117.847656 C 164.429688 117.957031 164.878906 118.113281 165.265625 118.320312 C 165.652344 118.523438 165.953125 118.761719 166.164062 119.027344 C 166.371094 119.292969 166.476562 119.574219 166.476562 119.863281 Z M 166.476562 119.863281 " fill-opacity="1" fill-rule="nonzero"/><path fill="#ffffff" d="M 207.835938 119.863281 C 207.835938 120.152344 207.730469 120.429688 207.519531 120.695312 C 207.3125 120.964844 207.011719 121.199219 206.625 121.402344 C 206.234375 121.609375 205.789062 121.765625 205.28125 121.878906 C 204.777344 121.988281 204.246094 122.042969 203.699219 122.042969 C 203.152344 122.042969 202.625 121.988281 202.117188 121.878906 C 201.609375 121.765625 201.164062 121.609375 200.773438 121.402344 C 200.386719 121.199219 200.089844 120.964844 199.878906 120.695312 C 199.667969 120.429688 199.5625 120.152344 199.5625 119.863281 C 199.5625 119.574219 199.667969 119.292969 199.878906 119.027344 C 200.089844 118.761719 200.386719 118.523438 200.773438 118.320312 C 201.164062 118.113281 201.609375 117.957031 202.117188 117.847656 C 202.625 117.734375 203.152344 117.679688 203.699219 117.679688 C 204.246094 117.679688 204.777344 117.734375 205.28125 117.847656 C 205.789062 117.957031 206.234375 118.113281 206.625 118.320312 C 207.011719 118.523438 207.3125 118.761719 207.519531 119.027344 C 207.730469 119.292969 207.835938 119.574219 207.835938 119.863281 Z M 207.835938 119.863281 " fill-opacity="1" fill-rule="nonzero"/><g mask="url(#244485ffd3)"><g transform="matrix(1, 0, 0, 1, 158, 117)"><g clip-path="url(#96183dcef7)"><g clip-path="url(#36c0508721)"><path fill="#367cff" d="M 8.476562 2.863281 C 8.476562 3.152344 8.371094 3.429688 8.164062 3.695312 C 7.953125 3.964844 7.652344 4.199219 7.265625 4.40625 C 6.878906 4.609375 6.429688 4.765625 5.925781 4.878906 C 5.417969 4.988281 4.890625 5.042969 4.34375 5.042969 C 3.792969 5.042969 3.265625 4.988281 2.757812 4.878906 C 2.253906 4.765625 1.804688 4.609375 1.417969 4.40625 C 1.03125 4.199219 0.730469 3.964844 0.519531 3.695312 C 0.3125 3.429688 0.207031 3.152344 0.207031 2.863281 C 0.207031 2.574219 0.3125 2.292969 0.519531 2.027344 C 0.730469 1.761719 1.03125 1.523438 1.417969 1.320312 C 1.804688 1.113281 2.253906 0.957031 2.757812 0.847656 C 3.265625 0.734375 3.792969 0.679688 4.34375 0.679688 C 4.890625 0.679688 5.417969 0.734375 5.925781 0.847656 C 6.429688 0.957031 6.878906 1.113281 7.265625 1.320312 C 7.652344 1.523438 7.953125 1.761719 8.164062 2.027344 C 8.371094 2.292969 8.476562 2.574219 8.476562 2.863281 Z M 8.476562 2.863281 " fill-opacity="1" fill-rule="nonzero"/></g><g clip-path="url(#8fc94b54c6)"><path fill="#367cff" d="M 49.835938 2.863281 C 49.835938 3.152344 49.730469 3.429688 49.519531 3.695312 C 49.3125 3.964844 49.011719 4.199219 48.625 4.40625 C 48.234375 4.609375 47.789062 4.765625 47.28125 4.878906 C 46.777344 4.988281 46.246094 5.042969 45.699219 5.042969 C 45.152344 5.042969 44.625 4.988281 44.117188 4.878906 C 43.609375 4.765625 43.164062 4.609375 42.773438 4.40625 C 42.386719 4.199219 42.089844 3.964844 41.878906 3.695312 C 41.667969 3.429688 41.5625 3.152344 41.5625 2.863281 C 41.5625 2.574219 41.667969 2.292969 41.878906 2.027344 C 42.089844 1.761719 42.386719 1.523438 42.773438 1.320312 C 43.164062 1.113281 43.609375 0.957031 44.117188 0.847656 C 44.625 0.734375 45.152344 0.679688 45.699219 0.679688 C 46.246094 0.679688 46.777344 0.734375 47.28125 0.847656 C 47.789062 0.957031 48.234375 1.113281 48.625 1.320312 C 49.011719 1.523438 49.3125 1.761719 49.519531 2.027344 C 49.730469 2.292969 49.835938 2.574219 49.835938 2.863281 Z M 49.835938 2.863281 " fill-opacity="1" fill-rule="nonzero"/></g></g></g></g><path fill="#367cff" d="M 216.988281 82.273438 C 216.011719 81.152344 214.984375 80.082031 213.90625 79.0625 C 212.828125 78.042969 211.699219 77.074219 210.523438 76.167969 C 209.351562 75.257812 208.132812 74.40625 206.875 73.617188 C 205.617188 72.828125 204.324219 72.101562 202.996094 71.441406 C 201.667969 70.777344 200.308594 70.179688 198.921875 69.652344 C 197.535156 69.125 196.125 68.664062 194.691406 68.273438 C 193.257812 67.886719 191.8125 67.566406 190.347656 67.320312 C 188.882812 67.070312 187.410156 66.898438 185.929688 66.792969 C 184.449219 66.691406 182.96875 66.664062 181.484375 66.707031 C 180 66.75 178.523438 66.867188 177.050781 67.054688 C 175.578125 67.246094 174.117188 67.503906 172.671875 67.839844 C 171.222656 68.171875 169.796875 68.574219 168.390625 69.046875 C 166.984375 69.519531 165.601562 70.0625 164.246094 70.671875 C 162.894531 71.28125 161.574219 71.953125 160.285156 72.691406 C 158.996094 73.433594 157.746094 74.234375 156.539062 75.09375 C 155.328125 75.957031 154.164062 76.875 153.042969 77.851562 C 137.902344 91.070312 133.246094 113.042969 141.730469 131.292969 C 143.441406 134.96875 145.605469 138.347656 148.222656 141.441406 L 148.78125 142.101562 L 107.269531 186.246094 C 107.082031 186.449219 106.914062 186.667969 106.769531 186.902344 C 106.625 187.136719 106.503906 187.386719 106.40625 187.644531 C 106.308594 187.902344 106.238281 188.171875 106.195312 188.445312 C 106.152344 188.714844 106.132812 188.992188 106.140625 189.269531 C 106.152344 189.542969 106.1875 189.816406 106.25 190.085938 C 106.3125 190.355469 106.402344 190.617188 106.515625 190.871094 C 106.628906 191.121094 106.765625 191.359375 106.925781 191.585938 C 107.085938 191.8125 107.265625 192.019531 107.46875 192.210938 C 107.667969 192.398438 107.886719 192.566406 108.121094 192.714844 C 108.355469 192.863281 108.601562 192.984375 108.859375 193.082031 C 109.117188 193.183594 109.382812 193.253906 109.652344 193.300781 C 109.925781 193.347656 110.199219 193.367188 110.476562 193.359375 C 110.753906 193.351562 111.023438 193.320312 111.292969 193.257812 C 111.5625 193.195312 111.824219 193.109375 112.078125 193 C 112.332031 192.886719 112.570312 192.75 112.796875 192.589844 C 113.019531 192.433594 113.230469 192.253906 113.421875 192.054688 L 154.921875 147.914062 L 155.617188 148.433594 C 156.722656 149.269531 157.867188 150.046875 159.046875 150.777344 C 160.226562 151.503906 161.433594 152.175781 162.675781 152.792969 C 163.914062 153.40625 165.183594 153.964844 166.472656 154.464844 C 167.765625 154.964844 169.078125 155.40625 170.410156 155.785156 C 171.742188 156.164062 173.085938 156.484375 174.449219 156.738281 C 175.808594 156.996094 177.179688 157.1875 178.558594 157.320312 C 179.933594 157.449219 181.316406 157.515625 182.703125 157.519531 C 184.085938 157.523438 185.46875 157.464844 186.847656 157.339844 C 188.226562 157.214844 189.597656 157.03125 190.960938 156.78125 C 192.320312 156.53125 193.667969 156.21875 195.003906 155.847656 C 196.335938 155.472656 197.652344 155.039062 198.945312 154.546875 C 200.238281 154.050781 201.507812 153.5 202.75 152.890625 C 203.996094 152.277344 205.207031 151.613281 206.390625 150.890625 C 207.574219 150.167969 208.71875 149.394531 209.832031 148.566406 C 210.945312 147.738281 212.015625 146.863281 213.046875 145.9375 C 214.078125 145.011719 215.066406 144.042969 216.007812 143.023438 C 216.949219 142.007812 217.84375 140.949219 218.691406 139.851562 C 219.539062 138.753906 220.332031 137.621094 221.074219 136.449219 C 221.816406 135.277344 222.503906 134.074219 223.136719 132.839844 C 223.769531 131.605469 224.34375 130.34375 224.859375 129.054688 C 225.375 127.769531 225.832031 126.460938 226.230469 125.132812 C 226.628906 123.800781 226.964844 122.457031 227.238281 121.097656 C 227.511719 119.738281 227.722656 118.367188 227.871094 116.988281 C 228.019531 115.609375 228.105469 114.226562 228.128906 112.839844 C 228.152344 111.449219 228.109375 110.066406 228.007812 108.683594 C 227.902344 107.296875 227.734375 105.921875 227.503906 104.554688 C 227.273438 103.1875 226.984375 101.832031 226.628906 100.488281 C 226.273438 99.148438 225.859375 97.824219 225.386719 96.523438 C 224.910156 95.21875 224.375 93.941406 223.785156 92.6875 C 223.191406 91.429688 222.542969 90.207031 221.839844 89.011719 C 221.136719 87.816406 220.378906 86.65625 219.570312 85.53125 C 218.757812 84.40625 217.898438 83.320312 216.988281 82.273438 Z M 219.589844 114.644531 C 219.511719 115.796875 219.378906 116.945312 219.191406 118.085938 C 219.003906 119.226562 218.765625 120.355469 218.472656 121.472656 C 218.179688 122.589844 217.835938 123.691406 217.441406 124.777344 C 217.042969 125.863281 216.597656 126.929688 216.101562 127.972656 C 215.609375 129.015625 215.066406 130.035156 214.472656 131.027344 C 213.882812 132.019531 213.246094 132.980469 212.566406 133.914062 C 211.886719 134.847656 211.164062 135.746094 210.398438 136.609375 C 209.632812 137.476562 208.828125 138.300781 207.984375 139.089844 C 207.144531 139.882812 206.265625 140.628906 205.355469 141.335938 C 204.441406 142.042969 203.496094 142.703125 202.523438 143.324219 C 201.546875 143.941406 200.546875 144.511719 199.519531 145.035156 C 198.492188 145.558594 197.441406 146.035156 196.367188 146.460938 C 195.296875 146.882812 194.207031 147.257812 193.097656 147.582031 C 191.992188 147.902344 190.871094 148.171875 189.738281 148.390625 C 188.605469 148.609375 187.464844 148.773438 186.316406 148.882812 C 185.167969 148.992188 184.019531 149.046875 182.863281 149.050781 C 182.003906 149.050781 181.140625 149.019531 180.273438 148.957031 C 179.519531 148.90625 178.765625 148.832031 178.019531 148.734375 C 177.269531 148.636719 176.523438 148.515625 175.78125 148.371094 C 175.042969 148.230469 174.304688 148.0625 173.574219 147.875 C 172.84375 147.6875 172.117188 147.476562 171.398438 147.242188 C 170.679688 147.007812 169.96875 146.753906 169.265625 146.476562 C 168.566406 146.199219 167.871094 145.902344 167.1875 145.582031 C 166.5 145.261719 165.828125 144.921875 165.164062 144.558594 C 164.5 144.199219 163.847656 143.816406 163.207031 143.417969 C 162.566406 143.015625 161.941406 142.59375 161.328125 142.15625 C 160.710938 141.714844 160.113281 141.257812 159.523438 140.78125 C 158.9375 140.300781 158.367188 139.808594 157.8125 139.296875 C 157.253906 138.785156 156.714844 138.253906 156.191406 137.710938 C 155.667969 137.164062 155.160156 136.605469 154.671875 136.027344 C 154.183594 135.453125 153.710938 134.859375 153.257812 134.253906 C 152.804688 133.648438 152.371094 133.03125 151.957031 132.398438 C 151.542969 131.765625 151.144531 131.121094 150.769531 130.464844 C 150.394531 129.808594 150.039062 129.144531 149.703125 128.464844 C 149.371094 127.785156 149.054688 127.097656 148.761719 126.402344 C 148.472656 125.703125 148.199219 124.996094 147.949219 124.28125 C 147.703125 123.570312 147.472656 122.847656 147.269531 122.121094 C 147.0625 121.390625 146.882812 120.65625 146.722656 119.917969 C 146.5625 119.179688 146.421875 118.433594 146.308594 117.6875 C 146.195312 116.9375 146.101562 116.1875 146.035156 115.433594 C 145.964844 114.679688 145.921875 113.925781 145.898438 113.167969 C 145.875 112.414062 145.875 111.65625 145.898438 110.898438 C 145.925781 110.144531 145.972656 109.390625 146.042969 108.636719 C 146.113281 107.882812 146.207031 107.132812 146.320312 106.382812 C 146.4375 105.636719 146.578125 104.894531 146.738281 104.152344 C 146.902344 103.414062 147.085938 102.679688 147.292969 101.953125 C 147.5 101.226562 147.726562 100.503906 147.980469 99.792969 C 148.230469 99.078125 148.503906 98.371094 148.796875 97.675781 C 149.089844 96.980469 149.40625 96.292969 149.742188 95.613281 C 150.078125 94.9375 150.4375 94.269531 150.8125 93.613281 C 151.191406 92.957031 151.585938 92.316406 152.003906 91.683594 C 152.421875 91.054688 152.855469 90.433594 153.308594 89.832031 C 153.765625 89.226562 154.238281 88.636719 154.726562 88.0625 C 155.21875 87.488281 155.726562 86.925781 156.25 86.382812 C 156.777344 85.839844 157.316406 85.3125 157.875 84.800781 C 158.433594 84.289062 159.003906 83.796875 159.589844 83.320312 C 160.179688 82.847656 160.78125 82.390625 161.394531 81.949219 C 162.011719 81.511719 162.640625 81.09375 163.28125 80.695312 C 163.921875 80.292969 164.574219 79.914062 165.238281 79.554688 C 165.902344 79.195312 166.578125 78.855469 167.265625 78.539062 C 167.949219 78.21875 168.644531 77.921875 169.347656 77.648438 C 170.050781 77.371094 170.761719 77.117188 171.480469 76.886719 C 172.199219 76.65625 172.925781 76.445312 173.65625 76.257812 C 174.386719 76.074219 175.125 75.910156 175.867188 75.765625 C 176.609375 75.625 177.355469 75.507812 178.101562 75.410156 C 178.851562 75.316406 179.601562 75.242188 180.355469 75.191406 C 181.109375 75.144531 181.863281 75.117188 182.621094 75.113281 C 183.375 75.109375 184.128906 75.132812 184.882812 75.175781 C 185.636719 75.21875 186.390625 75.285156 187.140625 75.375 C 187.890625 75.464844 188.636719 75.574219 189.378906 75.710938 C 190.121094 75.847656 190.859375 76.003906 191.59375 76.1875 C 192.324219 76.367188 193.054688 76.570312 193.773438 76.796875 C 194.496094 77.023438 195.207031 77.269531 195.914062 77.539062 C 196.617188 77.808594 197.316406 78.101562 198.003906 78.414062 C 198.691406 78.726562 199.367188 79.058594 200.035156 79.414062 C 200.703125 79.765625 201.359375 80.140625 202.003906 80.535156 C 202.648438 80.929688 203.28125 81.34375 203.898438 81.777344 C 204.515625 82.210938 205.121094 82.664062 205.714844 83.132812 C 206.304688 83.605469 206.882812 84.09375 207.441406 84.597656 C 208.003906 85.105469 208.550781 85.628906 209.078125 86.167969 C 209.609375 86.707031 210.121094 87.261719 210.617188 87.835938 C 212.210938 89.660156 213.609375 91.625 214.816406 93.730469 C 216.023438 95.835938 217.011719 98.039062 217.78125 100.339844 C 218.550781 102.640625 219.089844 104.996094 219.394531 107.402344 C 219.699219 109.808594 219.765625 112.222656 219.589844 114.644531 Z M 219.589844 114.644531 " fill-opacity="1" fill-rule="nonzero"/></svg>