<svg xmlns="http://www.w3.org/2000/svg" viewBox="0 0 400 400" fill="none" shape-rendering="auto"><metadata xmlns:rdf="http://www.w3.org/1999/02/22-rdf-syntax-ns#" xmlns:xsi="http://www.w3.org/2001/XMLSchema-instance" xmlns:dc="http://purl.org/dc/elements/1.1/" xmlns:dcterms="http://purl.org/dc/terms/"><rdf:RDF><rdf:Description><dc:title>Adventurer Neutral</dc:title><dc:creator>Lisa Wischofsky</dc:creator><dc:source xsi:type="dcterms:URI">https://www.figma.com/community/file/1184595184137881796</dc:source><dcterms:license xsi:type="dcterms:URI">https://creativecommons.org/licenses/by/4.0/</dcterms:license><dc:rights>Remix of „Adventurer Neutral” (https://www.figma.com/community/file/1184595184137881796) by „Lisa Wischofsky”, licensed under „CC BY 4.0” (https://creativecommons.org/licenses/by/4.0/)</dc:rights></rdf:Description></rdf:RDF></metadata><mask id="viewboxMask"><rect width="400" height="400" rx="0" ry="0" x="0" y="0" fill="#fff" /></mask><g mask="url(#viewboxMask)"><rect fill="#ecad80" width="400" height="400" x="0" y="0" /><g transform="translate(-279 -322)"><path d="M550.3 424.38c22.91-2.4 46.2 8 59.5 26.8A65.77 65.77 0 0 1 622.16 491c-.45 10.96-3.32 21.75-8.93 31.21-8.53 14.65-23.03 25.87-39.46 30.13a65.5 65.5 0 0 1-41.5-2.57 65.32 65.32 0 0 1-32.38-28.67c-7.4-12.95-9.7-28.21-7.34-42.87a64.87 64.87 0 0 1 17.9-34.8 65.14 65.14 0 0 1 39.86-19.06Z" fill="#000"/><path d="M549.26 430.26a59.65 59.65 0 0 1 42.62 10.89c15.43 11.05 25 29.84 24.48 48.85.05 22.7-14.12 44.35-34.86 53.52-10.79 4.85-22.8 6.65-34.5 4.52a59.62 59.62 0 0 1-40.35-26.67 61.5 61.5 0 0 1-9.37-29.32 60.42 60.42 0 0 1 13.41-40.36 59.52 59.52 0 0 1 38.57-21.43Z" fill="#fff"/><path d="M381.24 447.1a54.92 54.92 0 0 1 59.96 45.86c1.17 8.18.85 16.9-1.66 24.82A54.86 54.86 0 0 1 380 556.3c-15.8-1.8-30.35-11-39.02-24.28-5.54-8.32-8.46-18.03-9.11-27.97-.3-12.31 3.26-24.64 10.57-34.6a55.1 55.1 0 0 1 38.8-22.35Z" fill="#000"/><path d="M376.5 453.67c18.86-4.33 39.25 3.64 50.42 19.36 7.92 11.03 11.42 25.76 8.17 39.05a48.81 48.81 0 0 1-14.45 25.58 49.5 49.5 0 0 1-29.64 13.28c-19.88 1.83-39.68-9.53-48.32-27.5a49.23 49.23 0 0 1 33.81-69.78Z" fill="#fff"/><path d="M576.41 464.4a24.73 24.73 0 0 1 17.67 1.5c9.98 4.69 16.69 17.38 12.92 28.13a24.34 24.34 0 0 1-17.18 17.45c-6.55 1.67-13.68.8-19.44-2.84-8.89-5.5-13.54-16.73-10.71-26.86a24.59 24.59 0 0 1 16.74-17.38ZM408.46 478.49c12.74-1.61 25.04 8.55 25.32 21.5 1.08 12.37-9.26 24.21-21.78 24.28-12.48.61-23.88-9.65-23.87-22.26-.7-11.8 8.69-22.33 20.33-23.52Z" fill="#000"/></g><g transform="translate(-279 -322)"><path d="M606.99 397.59c1.52-.4 3.26.6 4.74.97-.11 1.2-.17 2.45-.47 3.61-1.58 1.5-3.57 2.6-5.39 3.78-22.77 14.6-46.18 28.4-70.32 40.63-11.53 5.73-23.34 11.3-35.55 15.44-6.86 2.19-13.72 4.28-21 3.44-3.32-.31-6.17-3.02-6.24-6.43-.04-4.22 3-8.6 5.08-12.15 1.28-2.68 4.5-3.04 7-4.12 37.23-13.75 74.43-27.65 111.66-41.45 3.48-1.23 6.9-2.81 10.5-3.72ZM338.99 432.64c29.88 5.94 60.13 12.03 90.02 18.02 2.27.32 4.6.07 6.85.45 2.45 2.3 3.64 6.2 4.54 9.37 1.17 4.09-.15 8.77-3.9 11-4 2.63-9.92 2.17-14.5 1.9-8.75-1-17.42-3.8-25.69-6.74-19.61-7.16-38.69-16.93-56.97-26.97-1.67-.96-3.68-1.94-4.79-3.55-.38-2.88 1.85-4.16 4.44-3.48Z" fill="#000"/></g><g transform="translate(-279 -322)"><path d="M517.9 557.82c1.53.3 2.76 1.6 2.73 3.2-7.1 16.81-15.06 33.2-25.17 48.42-4.62 6.97-9.13 14.14-14.43 20.6-2.18 3.28-7.96 2.93-10.79.73a126.22 126.22 0 0 1-19.13-16.87c-9.22-10.37-17.94-20.12-24.71-32.38-.81-1.89-2.3-3.93-.75-5.87.54-1.24 2.97-.86 3.53.16a140.4 140.4 0 0 0 18.52 25.5c6.97 8.1 14.24 15.75 22.74 22.28 1.12.8 2.37 1.74 3.7 2.1 2.62.27 3.9-1.32 5.33-3.2 13.52-19.02 25.72-38.75 34.68-60.37.81-2 1.46-3.68 3.75-4.3Z" fill="#000"/></g><g transform="translate(-279 -322)"></g></g></svg>