<svg xmlns="http://www.w3.org/2000/svg" viewBox="0 0 400 400" fill="none" shape-rendering="auto"><metadata xmlns:rdf="http://www.w3.org/1999/02/22-rdf-syntax-ns#" xmlns:xsi="http://www.w3.org/2001/XMLSchema-instance" xmlns:dc="http://purl.org/dc/elements/1.1/" xmlns:dcterms="http://purl.org/dc/terms/"><rdf:RDF><rdf:Description><dc:title>Adventurer Neutral</dc:title><dc:creator>Lisa Wischofsky</dc:creator><dc:source xsi:type="dcterms:URI">https://www.figma.com/community/file/1184595184137881796</dc:source><dcterms:license xsi:type="dcterms:URI">https://creativecommons.org/licenses/by/4.0/</dcterms:license><dc:rights>Remix of „Adventurer Neutral” (https://www.figma.com/community/file/1184595184137881796) by „Lisa Wischofsky”, licensed under „CC BY 4.0” (https://creativecommons.org/licenses/by/4.0/)</dc:rights></rdf:Description></rdf:RDF></metadata><mask id="viewboxMask"><rect width="400" height="400" rx="0" ry="0" x="0" y="0" fill="#fff" /></mask><g mask="url(#viewboxMask)"><rect fill="#ecad80" width="400" height="400" x="0" y="0" /><g transform="translate(-279 -322)"><path d="M547.51 424.76a65.19 65.19 0 0 1 74.24 57.74 65.15 65.15 0 0 1-11.25 43.98 65.94 65.94 0 0 1-31.67 24.34 65.9 65.9 0 0 1-37.82 1.79 65.13 65.13 0 0 1-40.76-30.86c-13-22.14-11.12-51.53 4.58-71.84 10.24-13.5 25.83-22.89 42.68-25.14Z" fill="#000"/><path d="M549.22 430.26c14.42-1.74 28.8 1.48 40.84 9.62a59.14 59.14 0 0 1 23.84 32.34 59.2 59.2 0 0 1-2.84 41.72c-6.1 13.63-17.66 24.89-31.56 30.42a58.2 58.2 0 0 1-32.5 3.68 59.7 59.7 0 0 1-36.17-20.89A60.9 60.9 0 0 1 497.24 491a60.5 60.5 0 0 1 13.45-39.31 59.49 59.49 0 0 1 38.53-21.43Z" fill="#fff"/><path d="M381.2 447.1a55.25 55.25 0 0 1 38.86 10.79 55.08 55.08 0 0 1 21.08 34.58c1.23 8.34.97 17.27-1.61 25.34a54.87 54.87 0 0 1-29.73 33.99 55.02 55.02 0 0 1-72.45-26.19c-4.7-10-6.75-21.7-4.67-32.61a54.52 54.52 0 0 1 16.82-31.5 55.1 55.1 0 0 1 31.7-14.4Z" fill="#000"/><path d="M378.22 453.3a49.36 49.36 0 0 1 56.15 35.19c5.15 17-.4 36.5-13.2 48.68-12.66 12.44-32.08 17.22-49 11.63a49.5 49.5 0 0 1-32.71-33.83 49.37 49.37 0 0 1 12.57-47.94 49.68 49.68 0 0 1 26.2-13.73Z" fill="#fff"/><path d="M558.77 456.74c-3.87 4-6.69 8.52-6.65 14.27a20.66 20.66 0 0 0 12.5 20.42c5.98 2.45 12.26 1.32 17.64-2-.16 9.43-2.85 18.5-9.28 25.57-9.4 10.74-24.98 15.07-38.53 10.43-14.35-4.54-24.66-18.38-24.98-33.42-.48-13.95 7.47-27.39 20.04-33.53 9.2-4.73 19.5-4.72 29.26-1.73ZM391.97 467.88c8-1.43 15.68.54 22.74 4.28-3.02 3.08-5.46 6.31-5.5 10.82-.67 7.23 4.56 14.26 11.75 15.48 3.41.68 6.2-.46 9.41-1.4 1.12 12.26-4.48 24.68-14.77 31.54-11.64 7.9-28.4 7-39.25-1.9-9.69-7.6-14.38-20.75-11.76-32.75 2.7-13.31 13.83-24.22 27.37-26.07Z" fill="#000"/><path d="M527.44 489.51c2.29-1 4.8-1.33 6.96.16 3.54 2.29 3.45 7.56.77 10.5-2.67 3.02-7.74 3.2-10.32-.07-2.84-3.42-1.31-8.7 2.6-10.6ZM379.44 495.55c4.76-1.63 9.31 3.59 7.07 8-1.61 3.63-6.93 4.38-9.39 1.31-2.61-2.97-1.48-8 2.32-9.31ZM536.5 504.69c2.48-.77 5.29-.59 7.77.12 6.15 2.42 8.05 11.23 3.58 16.06-3.97 4.75-11.78 4.84-15.7-.02-4.44-5.37-2.44-13.92 4.35-16.16ZM386.51 512.74c3.42-1.11 7.14-.63 9.61 2.16 3.5 3.38 3.36 9.65-.57 12.65-4.05 3.44-10.78 1.72-13.23-2.86-2.58-4.3-.61-10.32 4.19-11.95Z" fill="#fff"/></g><g transform="translate(-279 -322)"><path d="M606.99 397.59c1.52-.4 3.26.6 4.74.97-.11 1.2-.17 2.45-.47 3.61-1.58 1.5-3.57 2.6-5.39 3.78-22.77 14.6-46.18 28.4-70.32 40.63-11.53 5.73-23.34 11.3-35.55 15.44-6.86 2.19-13.72 4.28-21 3.44-3.32-.31-6.17-3.02-6.24-6.43-.04-4.22 3-8.6 5.08-12.15 1.28-2.68 4.5-3.04 7-4.12 37.23-13.75 74.43-27.65 111.66-41.45 3.48-1.23 6.9-2.81 10.5-3.72ZM338.99 432.64c29.88 5.94 60.13 12.03 90.02 18.02 2.27.32 4.6.07 6.85.45 2.45 2.3 3.64 6.2 4.54 9.37 1.17 4.09-.15 8.77-3.9 11-4 2.63-9.92 2.17-14.5 1.9-8.75-1-17.42-3.8-25.69-6.74-19.61-7.16-38.69-16.93-56.97-26.97-1.67-.96-3.68-1.94-4.79-3.55-.38-2.88 1.85-4.16 4.44-3.48Z" fill="#000"/></g><g transform="translate(-279 -322)"><path d="M517.9 557.82c1.53.3 2.76 1.6 2.73 3.2-7.1 16.81-15.06 33.2-25.17 48.42-4.62 6.97-9.13 14.14-14.43 20.6-2.18 3.28-7.96 2.93-10.79.73a126.22 126.22 0 0 1-19.13-16.87c-9.22-10.37-17.94-20.12-24.71-32.38-.81-1.89-2.3-3.93-.75-5.87.54-1.24 2.97-.86 3.53.16a140.4 140.4 0 0 0 18.52 25.5c6.97 8.1 14.24 15.75 22.74 22.28 1.12.8 2.37 1.74 3.7 2.1 2.62.27 3.9-1.32 5.33-3.2 13.52-19.02 25.72-38.75 34.68-60.37.81-2 1.46-3.68 3.75-4.3Z" fill="#000"/></g><g transform="translate(-279 -322)"></g></g></svg>