<svg xmlns="http://www.w3.org/2000/svg" viewBox="0 0 400 400" fill="none" shape-rendering="auto"><metadata xmlns:rdf="http://www.w3.org/1999/02/22-rdf-syntax-ns#" xmlns:xsi="http://www.w3.org/2001/XMLSchema-instance" xmlns:dc="http://purl.org/dc/elements/1.1/" xmlns:dcterms="http://purl.org/dc/terms/"><rdf:RDF><rdf:Description><dc:title>Adventurer Neutral</dc:title><dc:creator>Lisa Wischofsky</dc:creator><dc:source xsi:type="dcterms:URI">https://www.figma.com/community/file/1184595184137881796</dc:source><dcterms:license xsi:type="dcterms:URI">https://creativecommons.org/licenses/by/4.0/</dcterms:license><dc:rights>Remix of „Adventurer Neutral” (https://www.figma.com/community/file/1184595184137881796) by „Lisa Wischofsky”, licensed under „CC BY 4.0” (https://creativecommons.org/licenses/by/4.0/)</dc:rights></rdf:Description></rdf:RDF></metadata><mask id="viewboxMask"><rect width="400" height="400" rx="0" ry="0" x="0" y="0" fill="#fff" /></mask><g mask="url(#viewboxMask)"><rect fill="#ecad80" width="400" height="400" x="0" y="0" /><g transform="translate(-279 -322)"><path d="M559.01 424.1a65.32 65.32 0 0 1 43.93 18.98c5.76 5.61 9.95 12.31 13.6 19.43 7.87-5.09 15.8-10.08 23.76-15.03a50.52 50.52 0 0 1 3.56 3.46c-3.17 3.52-7.07 5.39-10.96 7.93-4.77 3.03-9.55 6.03-14.3 9.08 3.17 10 4.53 20.39 2.8 30.81a64.8 64.8 0 0 1-20.75 38.93A64.57 64.57 0 0 1 558 554.53a64.54 64.54 0 0 1-36.9-10.63 65.67 65.67 0 0 1-26.4-34.58c-4.57-14.5-4.06-30.74 1.8-44.81a65.1 65.1 0 0 1 28.11-31.9c10.31-6.05 22.51-8.86 34.4-8.5Z" fill="#000"/><path d="M549.27 430.26c14.65-1.77 29.27 1.62 41.4 10.04a59.45 59.45 0 0 1 20.39 73.64c-6.12 13.64-17.67 24.9-31.58 30.43a58.17 58.17 0 0 1-32.48 3.67 59.6 59.6 0 0 1-40.35-26.68 61.43 61.43 0 0 1-9.37-29.31 60.38 60.38 0 0 1 13.41-40.36 59.47 59.47 0 0 1 38.58-21.43Z" fill="#fff"/><path d="M414.05 453.95a55.06 55.06 0 0 1 23.87 27.2c3.5 8.51 4.54 17.78 3.61 26.9a54.83 54.83 0 0 1-27.1 41.38c-16.49 9.64-37.66 9.77-54.3.41a55 55 0 0 1-27.4-38.84c-1.8-8.9-.64-17.67 1.9-26.3-5.83-3.62-12.14-6.61-17.75-10.54-1.95-1.1-1.44-4.12.68-4.64 1.65-.48 3.18.6 4.6 1.28 4.83 2.83 9.64 5.66 14.48 8.47 6.58-14.13 18.65-25.2 33.6-29.87a55.21 55.21 0 0 1 43.81 4.55Z" fill="#000"/><path d="M378.27 453.29a49.32 49.32 0 0 1 42.11 12.35 50.02 50.02 0 0 1 15.93 36.37 51.36 51.36 0 0 1-6.07 23.26 49.5 49.5 0 0 1-33.98 24.9c-8.07 1.72-16.23 1.1-24.08-1.36-19.1-5.88-33.31-23.78-34.38-43.79-.98-12.79 3.48-25.72 11.85-35.4a49.5 49.5 0 0 1 28.62-16.33Z" fill="#fff"/><path d="M527.27 466.19c7.37-.9 15.21 1.78 20.25 7.3a24.2 24.2 0 0 1 6.4 15.46 23.88 23.88 0 0 1-8.72 19.24c-6.96 5.83-17.24 6.92-25.36 2.96-8.64-4.1-14.23-13.6-13.38-23.18.7-11.14 9.74-20.51 20.81-21.78ZM358.54 480.84c11.4-3.87 24.34 3 27.54 14.6 3.77 11.68-4.02 24.85-16.03 27.31-10.63 2.65-22.19-3.54-25.66-13.94-3.92-11.13 2.75-24.59 14.15-27.97Z" fill="#000"/></g><g transform="translate(-279 -322)"><path d="M606.99 397.59c1.52-.4 3.26.6 4.74.97-.11 1.2-.17 2.45-.47 3.61-1.58 1.5-3.57 2.6-5.39 3.78-22.77 14.6-46.18 28.4-70.32 40.63-11.53 5.73-23.34 11.3-35.55 15.44-6.86 2.19-13.72 4.28-21 3.44-3.32-.31-6.17-3.02-6.24-6.43-.04-4.22 3-8.6 5.08-12.15 1.28-2.68 4.5-3.04 7-4.12 37.23-13.75 74.43-27.65 111.66-41.45 3.48-1.23 6.9-2.81 10.5-3.72ZM338.99 432.64c29.88 5.94 60.13 12.03 90.02 18.02 2.27.32 4.6.07 6.85.45 2.45 2.3 3.64 6.2 4.54 9.37 1.17 4.09-.15 8.77-3.9 11-4 2.63-9.92 2.17-14.5 1.9-8.75-1-17.42-3.8-25.69-6.74-19.61-7.16-38.69-16.93-56.97-26.97-1.67-.96-3.68-1.94-4.79-3.55-.38-2.88 1.85-4.16 4.44-3.48Z" fill="#000"/></g><g transform="translate(-279 -322)"><path d="M517.9 557.82c1.53.3 2.76 1.6 2.73 3.2-7.1 16.81-15.06 33.2-25.17 48.42-4.62 6.97-9.13 14.14-14.43 20.6-2.18 3.28-7.96 2.93-10.79.73a126.22 126.22 0 0 1-19.13-16.87c-9.22-10.37-17.94-20.12-24.71-32.38-.81-1.89-2.3-3.93-.75-5.87.54-1.24 2.97-.86 3.53.16a140.4 140.4 0 0 0 18.52 25.5c6.97 8.1 14.24 15.75 22.74 22.28 1.12.8 2.37 1.74 3.7 2.1 2.62.27 3.9-1.32 5.33-3.2 13.52-19.02 25.72-38.75 34.68-60.37.81-2 1.46-3.68 3.75-4.3Z" fill="#000"/></g><g transform="translate(-279 -322)"></g></g></svg>