<svg xmlns="http://www.w3.org/2000/svg" viewBox="0 0 400 400" fill="none" shape-rendering="auto"><metadata xmlns:rdf="http://www.w3.org/1999/02/22-rdf-syntax-ns#" xmlns:xsi="http://www.w3.org/2001/XMLSchema-instance" xmlns:dc="http://purl.org/dc/elements/1.1/" xmlns:dcterms="http://purl.org/dc/terms/"><rdf:RDF><rdf:Description><dc:title>Adventurer Neutral</dc:title><dc:creator>Lisa Wischofsky</dc:creator><dc:source xsi:type="dcterms:URI">https://www.figma.com/community/file/1184595184137881796</dc:source><dcterms:license xsi:type="dcterms:URI">https://creativecommons.org/licenses/by/4.0/</dcterms:license><dc:rights>Remix of „Adventurer Neutral” (https://www.figma.com/community/file/1184595184137881796) by „Lisa Wischofsky”, licensed under „CC BY 4.0” (https://creativecommons.org/licenses/by/4.0/)</dc:rights></rdf:Description></rdf:RDF></metadata><mask id="viewboxMask"><rect width="400" height="400" rx="0" ry="0" x="0" y="0" fill="#fff" /></mask><g mask="url(#viewboxMask)"><rect fill="#ecad80" width="400" height="400" x="0" y="0" /><g transform="translate(-279 -322)"><path d="M562.01 467.8c1.68 0 3.23.31 4.88.58-.28 2.28.34 4.36-2.64 4.8-9.4.76-18.83 1.45-28.25 2.06-4.32.2-8.78 1.16-13.1.84-1.94-.79-2.62-2-2.03-4.1 1.45-1.38 3.19-1.54 5.1-1.69 12.02-.64 24-1.86 36.04-2.5ZM396.33 481.31c1.23 1.24 2.2 1.91 2.08 3.85-1.42 2.52-4.9 2.05-7.38 2.36-8.05.21-16.06 1.68-24.09 1.71-2.7-.36-2.11-2.53-2.53-4.58 10.33-2.64 21.37-1.79 31.93-3.34ZM618.89 483.07c1.04.75 2.08 1.48 3.13 2.22a65.59 65.59 0 0 1-9.93 38.78 65.45 65.45 0 0 1-24.32 22.73c-14.52 7.96-32.32 9.86-48.26 5.44a65.36 65.36 0 0 1-35.32-24.4 63.91 63.91 0 0 1-12.38-33.97c2.1-3.32 5.74-3 9.17-3.26 30.68-2.1 61.35-4.13 92.02-6.22 8.7-.2 17.2-1.64 25.89-1.32Z" fill="#000"/><path d="M616.28 488.65c.74 20.78-11.03 41.27-28.85 51.8-11.82 6.93-25.88 9.98-39.46 7.75a59.72 59.72 0 0 1-35.27-18.9c-8.02-8.88-13.6-20.53-14.76-32.49 11.17-1.23 22.38-1.67 33.58-2.63.38 8.47 1.87 17.19 5.2 25.03 1.89 4.28 5.29 10.07 10.23 11.13 4.79.85 7.97-2.58 9.97-6.45 4.58-9.28 4-21.5 3.22-31.56 18.7-1.25 37.42-2.66 56.14-3.67Z" fill="#fff"/><path d="M415.01 499.71c8.1-.69 16.13-1.44 24.27-1.05.87.83 1.75 1.67 2.64 2.49.19 16-6.7 31.57-18.78 42.06a54.81 54.81 0 0 1-42.17 13.2 54.34 54.34 0 0 1-30.73-13.64 55.18 55.18 0 0 1-17.98-34.89c1.04-.88 2.19-2.68 3.63-2.82 13.04-1.6 26.05-1.69 39.11-2.95 13.35-.64 26.66-1.71 40-2.4Z" fill="#000"/><path d="M436.36 504.29c-.69 5.07-1.44 9.93-3.28 14.74a49.5 49.5 0 0 1-22.2 25.81 51 51 0 0 1-23.88 6.33 49.93 49.93 0 0 1-35.25-14.93 49.66 49.66 0 0 1-13.37-25.88 1021.4 1021.4 0 0 1 34.1-2.24c-.06 7.18.95 14.37 4.79 20.58 1.69 2.6 4.35 5.19 7.69 5 3.57-.14 6.11-3.3 7.5-6.28 2.85-6.64 2.88-13.67 2.25-20.74 13.86-.8 27.77-2.18 41.65-2.39Z" fill="#fff"/></g><g transform="translate(-279 -322)"><path d="M606.99 397.59c1.52-.4 3.26.6 4.74.97-.11 1.2-.17 2.45-.47 3.61-1.58 1.5-3.57 2.6-5.39 3.78-22.77 14.6-46.18 28.4-70.32 40.63-11.53 5.73-23.34 11.3-35.55 15.44-6.86 2.19-13.72 4.28-21 3.44-3.32-.31-6.17-3.02-6.24-6.43-.04-4.22 3-8.6 5.08-12.15 1.28-2.68 4.5-3.04 7-4.12 37.23-13.75 74.43-27.65 111.66-41.45 3.48-1.23 6.9-2.81 10.5-3.72ZM338.99 432.64c29.88 5.94 60.13 12.03 90.02 18.02 2.27.32 4.6.07 6.85.45 2.45 2.3 3.64 6.2 4.54 9.37 1.17 4.09-.15 8.77-3.9 11-4 2.63-9.92 2.17-14.5 1.9-8.75-1-17.42-3.8-25.69-6.74-19.61-7.16-38.69-16.93-56.97-26.97-1.67-.96-3.68-1.94-4.79-3.55-.38-2.88 1.85-4.16 4.44-3.48Z" fill="#000"/></g><g transform="translate(-279 -322)"><path d="M517.9 557.82c1.53.3 2.76 1.6 2.73 3.2-7.1 16.81-15.06 33.2-25.17 48.42-4.62 6.97-9.13 14.14-14.43 20.6-2.18 3.28-7.96 2.93-10.79.73a126.22 126.22 0 0 1-19.13-16.87c-9.22-10.37-17.94-20.12-24.71-32.38-.81-1.89-2.3-3.93-.75-5.87.54-1.24 2.97-.86 3.53.16a140.4 140.4 0 0 0 18.52 25.5c6.97 8.1 14.24 15.75 22.74 22.28 1.12.8 2.37 1.74 3.7 2.1 2.62.27 3.9-1.32 5.33-3.2 13.52-19.02 25.72-38.75 34.68-60.37.81-2 1.46-3.68 3.75-4.3Z" fill="#000"/></g><g transform="translate(-279 -322)"></g></g></svg>