<svg xmlns="http://www.w3.org/2000/svg" viewBox="0 0 400 400" fill="none" shape-rendering="auto"><metadata xmlns:rdf="http://www.w3.org/1999/02/22-rdf-syntax-ns#" xmlns:xsi="http://www.w3.org/2001/XMLSchema-instance" xmlns:dc="http://purl.org/dc/elements/1.1/" xmlns:dcterms="http://purl.org/dc/terms/"><rdf:RDF><rdf:Description><dc:title>Adventurer Neutral</dc:title><dc:creator>Lisa Wischofsky</dc:creator><dc:source xsi:type="dcterms:URI">https://www.figma.com/community/file/1184595184137881796</dc:source><dcterms:license xsi:type="dcterms:URI">https://creativecommons.org/licenses/by/4.0/</dcterms:license><dc:rights>Remix of „Adventurer Neutral” (https://www.figma.com/community/file/1184595184137881796) by „Lisa Wischofsky”, licensed under „CC BY 4.0” (https://creativecommons.org/licenses/by/4.0/)</dc:rights></rdf:Description></rdf:RDF></metadata><mask id="viewboxMask"><rect width="400" height="400" rx="0" ry="0" x="0" y="0" fill="#fff" /></mask><g mask="url(#viewboxMask)"><rect fill="#ecad80" width="400" height="400" x="0" y="0" /><g transform="translate(-279 -322)"><path d="M550.3 424.38a65.71 65.71 0 0 1 39.66 8.67 65.75 65.75 0 0 1 28.5 34.66c3.4 10.1 4.72 21.28 2.82 31.8-2.34 15.83-10.89 30.39-23.28 40.46-16.89 13.94-40.48 18.23-61.27 11.45a65.46 65.46 0 0 1-36.85-30.3c-7.4-12.95-9.69-28.2-7.34-42.87a64.98 64.98 0 0 1 18.4-35.3 65.16 65.16 0 0 1 39.36-18.57Z" fill="#000"/><path d="M549.26 430.26a59.64 59.64 0 0 1 42.62 10.89c15.42 11.05 25 29.85 24.47 48.85.07 22.7-14.11 44.36-34.86 53.52-10.79 4.85-22.8 6.65-34.5 4.5a59.52 59.52 0 0 1-40.34-26.66 61.43 61.43 0 0 1-9.37-29.31 60.42 60.42 0 0 1 13.41-40.36 59.5 59.5 0 0 1 38.57-21.43Z" fill="#fff"/><path d="M381.25 447.09a55.31 55.31 0 0 1 36.48 9.14 55.11 55.11 0 0 1 23.31 35.66c1.43 9.16 1.07 18.48-1.94 27.3a54.94 54.94 0 0 1-23.42 29.5 54.73 54.73 0 0 1-35.67 7.62c-15.79-1.82-30.36-11-39.03-24.29-5.54-8.32-8.46-18.03-9.11-27.98-.3-12.3 3.26-24.63 10.57-34.6a55.15 55.15 0 0 1 38.81-22.35Z" fill="#000"/><path d="M378.25 453.29a49.13 49.13 0 0 1 32.86 5.6c17.98 9.93 28.44 31.6 24.26 51.82a49.36 49.36 0 0 1-22.02 32.64 50.2 50.2 0 0 1-23.36 7.67c-19.83 1.35-39.3-10.23-47.63-28.27a49.26 49.26 0 0 1 5.04-50.33 49.4 49.4 0 0 1 30.85-19.14Z" fill="#fff"/><path d="M527.25 466.2c10.29-1.32 20.55 4.37 24.64 13.95 4.98 10.77.62 24.2-9.63 30.1-6.84 4.14-16 4.3-23.06.58-8.27-4.24-13.57-13.53-12.73-22.85.68-11.13 9.72-20.52 20.78-21.78ZM358.53 480.85c5.9-2.02 12.38-1.11 17.75 1.94a21.93 21.93 0 0 1 10.3 14.56c2.55 11.6-5.77 23.8-17.55 25.6-10.32 2.12-21.3-4.15-24.64-14.13-3.92-11.13 2.73-24.59 14.14-27.97Z" fill="#000"/></g><g transform="translate(-279 -322)"><path d="M606.99 397.59c1.52-.4 3.26.6 4.74.97-.11 1.2-.17 2.45-.47 3.61-1.58 1.5-3.57 2.6-5.39 3.78-22.77 14.6-46.18 28.4-70.32 40.63-11.53 5.73-23.34 11.3-35.55 15.44-6.86 2.19-13.72 4.28-21 3.44-3.32-.31-6.17-3.02-6.24-6.43-.04-4.22 3-8.6 5.08-12.15 1.28-2.68 4.5-3.04 7-4.12 37.23-13.75 74.43-27.65 111.66-41.45 3.48-1.23 6.9-2.81 10.5-3.72ZM338.99 432.64c29.88 5.94 60.13 12.03 90.02 18.02 2.27.32 4.6.07 6.85.45 2.45 2.3 3.64 6.2 4.54 9.37 1.17 4.09-.15 8.77-3.9 11-4 2.63-9.92 2.17-14.5 1.9-8.75-1-17.42-3.8-25.69-6.74-19.61-7.16-38.69-16.93-56.97-26.97-1.67-.96-3.68-1.94-4.79-3.55-.38-2.88 1.85-4.16 4.44-3.48Z" fill="#000"/></g><g transform="translate(-279 -322)"><path d="M517.9 557.82c1.53.3 2.76 1.6 2.73 3.2-7.1 16.81-15.06 33.2-25.17 48.42-4.62 6.97-9.13 14.14-14.43 20.6-2.18 3.28-7.96 2.93-10.79.73a126.22 126.22 0 0 1-19.13-16.87c-9.22-10.37-17.94-20.12-24.71-32.38-.81-1.89-2.3-3.93-.75-5.87.54-1.24 2.97-.86 3.53.16a140.4 140.4 0 0 0 18.52 25.5c6.97 8.1 14.24 15.75 22.74 22.28 1.12.8 2.37 1.74 3.7 2.1 2.62.27 3.9-1.32 5.33-3.2 13.52-19.02 25.72-38.75 34.68-60.37.81-2 1.46-3.68 3.75-4.3Z" fill="#000"/></g><g transform="translate(-279 -322)"></g></g></svg>