<svg xmlns="http://www.w3.org/2000/svg" viewBox="0 0 400 400" fill="none" shape-rendering="auto"><metadata xmlns:rdf="http://www.w3.org/1999/02/22-rdf-syntax-ns#" xmlns:xsi="http://www.w3.org/2001/XMLSchema-instance" xmlns:dc="http://purl.org/dc/elements/1.1/" xmlns:dcterms="http://purl.org/dc/terms/"><rdf:RDF><rdf:Description><dc:title>Adventurer Neutral</dc:title><dc:creator>Lisa Wischofsky</dc:creator><dc:source xsi:type="dcterms:URI">https://www.figma.com/community/file/1184595184137881796</dc:source><dcterms:license xsi:type="dcterms:URI">https://creativecommons.org/licenses/by/4.0/</dcterms:license><dc:rights>Remix of „Adventurer Neutral” (https://www.figma.com/community/file/1184595184137881796) by „Lisa Wischofsky”, licensed under „CC BY 4.0” (https://creativecommons.org/licenses/by/4.0/)</dc:rights></rdf:Description></rdf:RDF></metadata><mask id="viewboxMask"><rect width="400" height="400" rx="0" ry="0" x="0" y="0" fill="#fff" /></mask><g mask="url(#viewboxMask)"><rect fill="#ecad80" width="400" height="400" x="0" y="0" /><g transform="translate(-279 -322)"><path d="M554.99 424.09a65.3 65.3 0 0 1 43.19 14.7c9.2 7.44 16.2 17.65 20.32 28.7 2.1 5.57 2.58 11.14 3.64 16.93-1.32 1.48-1.69 3.34-4.05 3.02-7.04-.31-13.96-2.04-21.03-2.22-8.77-.1-17.38-.37-26.1.95-9.83 1.63-19.5 2.64-29.06 5.72a175.1 175.1 0 0 0-32.49 12.44c-3.35 1.62-6.46 3.76-9.88 5.22-2.08.77-4.42.35-5.29-1.92-2.28-7.19-2.82-15.19-2.45-22.69.94-16 8.12-31.4 19.67-42.5a65.08 65.08 0 0 1 43.54-18.36Z" fill="#000"/><path d="M557 429.85c15.33-.23 30.4 6.15 41.39 16.75 9.87 9.5 15.83 22.19 17.7 35.7-14.9-2.86-30-3.76-45.12-2.5-6 .7-11.93 1.88-17.87 2.89-.9-3.26-1.74-6.35-3.55-9.25-5.97-9.96-19.33-15.24-30.34-11.14a25.88 25.88 0 0 0-15.95 14.9c-3.08 7.38-2.28 15.5 1.22 22.6l-5.74 2.9c-5.12-21.7 3.1-45.52 20.44-59.52 10.54-8.6 24.2-13.57 37.83-13.33Z" fill="#fff"/><path d="M411.45 452.57a55 55 0 0 1 27.77 32.17c3.17 9.5 3.14 19.25 1.59 29.04l-2.88 1.57a151.25 151.25 0 0 0-29.91-5.44c-17.9-1.13-36.17-1.69-54.05.02-6.9.17-13.47 2.03-20.42 1.58-.89-2.44-1.7-4.84-1.7-7.47-.18-10.31 2.22-20.81 7.45-29.76a55.03 55.03 0 0 1 72.15-21.7Z" fill="#000"/><path d="M397.24 453.61a49.57 49.57 0 0 1 27.52 16.64 49.91 49.91 0 0 1 11.07 38.62 83.07 83.07 0 0 0-12.33-3.02 232.53 232.53 0 0 0-37.65-2.38c-.06-3.82.07-7.4-1.47-10.98a23.17 23.17 0 0 0-18.35-14.5c-10.08-1.52-20.42 4.34-24.35 13.74-2.23 4.9-1.78 9.64-1.96 14.85-1.73-1.26-1.94-1.37-2-3.52-.53-12.06 4.07-24.34 11.93-33.45 11.5-13.5 30.27-19.84 47.6-16Z" fill="#fff"/></g><g transform="translate(-279 -322)"><path d="M606.99 397.59c1.52-.4 3.26.6 4.74.97-.11 1.2-.17 2.45-.47 3.61-1.58 1.5-3.57 2.6-5.39 3.78-22.77 14.6-46.18 28.4-70.32 40.63-11.53 5.73-23.34 11.3-35.55 15.44-6.86 2.19-13.72 4.28-21 3.44-3.32-.31-6.17-3.02-6.24-6.43-.04-4.22 3-8.6 5.08-12.15 1.28-2.68 4.5-3.04 7-4.12 37.23-13.75 74.43-27.65 111.66-41.45 3.48-1.23 6.9-2.81 10.5-3.72ZM338.99 432.64c29.88 5.94 60.13 12.03 90.02 18.02 2.27.32 4.6.07 6.85.45 2.45 2.3 3.64 6.2 4.54 9.37 1.17 4.09-.15 8.77-3.9 11-4 2.63-9.92 2.17-14.5 1.9-8.75-1-17.42-3.8-25.69-6.74-19.61-7.16-38.69-16.93-56.97-26.97-1.67-.96-3.68-1.94-4.79-3.55-.38-2.88 1.85-4.16 4.44-3.48Z" fill="#000"/></g><g transform="translate(-279 -322)"><path d="M517.9 557.82c1.53.3 2.76 1.6 2.73 3.2-7.1 16.81-15.06 33.2-25.17 48.42-4.62 6.97-9.13 14.14-14.43 20.6-2.18 3.28-7.96 2.93-10.79.73a126.22 126.22 0 0 1-19.13-16.87c-9.22-10.37-17.94-20.12-24.71-32.38-.81-1.89-2.3-3.93-.75-5.87.54-1.24 2.97-.86 3.53.16a140.4 140.4 0 0 0 18.52 25.5c6.97 8.1 14.24 15.75 22.74 22.28 1.12.8 2.37 1.74 3.7 2.1 2.62.27 3.9-1.32 5.33-3.2 13.52-19.02 25.72-38.75 34.68-60.37.81-2 1.46-3.68 3.75-4.3Z" fill="#000"/></g><g transform="translate(-279 -322)"></g></g></svg>