<svg xmlns="http://www.w3.org/2000/svg" viewBox="0 0 400 400" fill="none" shape-rendering="auto"><metadata xmlns:rdf="http://www.w3.org/1999/02/22-rdf-syntax-ns#" xmlns:xsi="http://www.w3.org/2001/XMLSchema-instance" xmlns:dc="http://purl.org/dc/elements/1.1/" xmlns:dcterms="http://purl.org/dc/terms/"><rdf:RDF><rdf:Description><dc:title>Adventurer Neutral</dc:title><dc:creator>Lisa Wischofsky</dc:creator><dc:source xsi:type="dcterms:URI">https://www.figma.com/community/file/1184595184137881796</dc:source><dcterms:license xsi:type="dcterms:URI">https://creativecommons.org/licenses/by/4.0/</dcterms:license><dc:rights>Remix of „Adventurer Neutral” (https://www.figma.com/community/file/1184595184137881796) by „Lisa Wischofsky”, licensed under „CC BY 4.0” (https://creativecommons.org/licenses/by/4.0/)</dc:rights></rdf:Description></rdf:RDF></metadata><mask id="viewboxMask"><rect width="400" height="400" rx="0" ry="0" x="0" y="0" fill="#fff" /></mask><g mask="url(#viewboxMask)"><rect fill="#ecad80" width="400" height="400" x="0" y="0" /><g transform="translate(-279 -322)"><path d="M380.24 447.22a55.22 55.22 0 0 1 38.11 9.43 55.05 55.05 0 0 1 22.82 36.06c1.19 8.28.93 17.07-1.63 25.08a54.93 54.93 0 0 1-25.11 31.65 54.67 54.67 0 0 1-33.47 6.98c-16.14-1.57-31.14-10.83-39.98-24.4-5.54-8.33-8.46-18.04-9.11-27.98-.3-12.3 3.26-24.62 10.56-34.57a55.01 55.01 0 0 1 37.81-22.25Z" fill="#000"/><path d="M378.24 453.29c19.42-3.65 39.86 5.43 50.31 22.16 6.62 10.5 9.5 23.85 6.67 36.03a49.3 49.3 0 0 1-22.5 32.27 50.26 50.26 0 0 1-22.73 7.28c-19.82 1.35-39.3-10.22-47.62-28.26a49.26 49.26 0 0 1 35.87-69.48Z" fill="#fff"/><path d="M589.99 474.91c13.08-.6 26.98-1.27 39.85 1.48 2.15.57 2.9 1.32 2.29 3.67-2.1 1.76-6.1 3.3-6.83 6.12-.03 6 9.05 5.9 9.7 10.8-.3 2.95-2.43 3.33-4.98 3.14a384.71 384.71 0 0 0-23.02-1.4c-16.02-.1-32.02-.24-48 .87-7.57.7-15.22.63-22.78 1.17-11.11 1.03-22.13 1.31-33.14 3.36-2.67.5-5.5 1.11-8.23 1.06-2.01-1.24-3.05-5.54-.56-6.86 5.33-3.02 11.33-5.1 17.18-6.87 15.08-4.97 30.76-8.25 46.26-11.64 10.64-2.42 21.43-3.76 32.26-4.9ZM405.43 479.68c3.46-.9 6.9-1 10.4-.2 8.85 2.08 15.44 10.42 15.31 19.54.24 11.12-10.03 21.17-21.19 20.13-9.28-.52-17.48-7.87-18.76-17.12-1.7-9.8 4.73-19.67 14.24-22.35Z" fill="#000"/></g><g transform="translate(-279 -322)"><path d="M606.99 397.59c1.52-.4 3.26.6 4.74.97-.11 1.2-.17 2.45-.47 3.61-1.58 1.5-3.57 2.6-5.39 3.78-22.77 14.6-46.18 28.4-70.32 40.63-11.53 5.73-23.34 11.3-35.55 15.44-6.86 2.19-13.72 4.28-21 3.44-3.32-.31-6.17-3.02-6.24-6.43-.04-4.22 3-8.6 5.08-12.15 1.28-2.68 4.5-3.04 7-4.12 37.23-13.75 74.43-27.65 111.66-41.45 3.48-1.23 6.9-2.81 10.5-3.72ZM338.99 432.64c29.88 5.94 60.13 12.03 90.02 18.02 2.27.32 4.6.07 6.85.45 2.45 2.3 3.64 6.2 4.54 9.37 1.17 4.09-.15 8.77-3.9 11-4 2.63-9.92 2.17-14.5 1.9-8.75-1-17.42-3.8-25.69-6.74-19.61-7.16-38.69-16.93-56.97-26.97-1.67-.96-3.68-1.94-4.79-3.55-.38-2.88 1.85-4.16 4.44-3.48Z" fill="#000"/></g><g transform="translate(-279 -322)"><path d="M517.9 557.82c1.53.3 2.76 1.6 2.73 3.2-7.1 16.81-15.06 33.2-25.17 48.42-4.62 6.97-9.13 14.14-14.43 20.6-2.18 3.28-7.96 2.93-10.79.73a126.22 126.22 0 0 1-19.13-16.87c-9.22-10.37-17.94-20.12-24.71-32.38-.81-1.89-2.3-3.93-.75-5.87.54-1.24 2.97-.86 3.53.16a140.4 140.4 0 0 0 18.52 25.5c6.97 8.1 14.24 15.75 22.74 22.28 1.12.8 2.37 1.74 3.7 2.1 2.62.27 3.9-1.32 5.33-3.2 13.52-19.02 25.72-38.75 34.68-60.37.81-2 1.46-3.68 3.75-4.3Z" fill="#000"/></g><g transform="translate(-279 -322)"></g></g></svg>