<svg xmlns="http://www.w3.org/2000/svg" viewBox="0 0 400 400" fill="none" shape-rendering="auto"><metadata xmlns:rdf="http://www.w3.org/1999/02/22-rdf-syntax-ns#" xmlns:xsi="http://www.w3.org/2001/XMLSchema-instance" xmlns:dc="http://purl.org/dc/elements/1.1/" xmlns:dcterms="http://purl.org/dc/terms/"><rdf:RDF><rdf:Description><dc:title>Adventurer Neutral</dc:title><dc:creator>Lisa Wischofsky</dc:creator><dc:source xsi:type="dcterms:URI">https://www.figma.com/community/file/1184595184137881796</dc:source><dcterms:license xsi:type="dcterms:URI">https://creativecommons.org/licenses/by/4.0/</dcterms:license><dc:rights>Remix of „Adventurer Neutral” (https://www.figma.com/community/file/1184595184137881796) by „Lisa Wischofsky”, licensed under „CC BY 4.0” (https://creativecommons.org/licenses/by/4.0/)</dc:rights></rdf:Description></rdf:RDF></metadata><mask id="viewboxMask"><rect width="400" height="400" rx="0" ry="0" x="0" y="0" fill="#fff" /></mask><g mask="url(#viewboxMask)"><rect fill="#ecad80" width="400" height="400" x="0" y="0" /><g transform="translate(-279 -322)"><path d="M551.26 424.28c22.14-1.95 44.44 7.9 57.71 25.75a66.1 66.1 0 0 1 13.2 39.97c-.27 12.75-4.02 25.34-11.26 35.89-8.84 13.1-22.73 23-38.11 26.7a65.2 65.2 0 0 1-73.29-32.14c-7.12-12.81-9.26-27.78-6.96-42.2a65.29 65.29 0 0 1 58.72-53.98Z" fill="#000"/><path d="M549.27 430.26a59.62 59.62 0 0 1 44.29 12.15c14.44 11.16 23.28 29.33 22.8 47.6.05 22.95-14.44 44.84-35.55 53.82-10.6 4.63-22.39 6.3-33.8 4.22a59.6 59.6 0 0 1-40.36-26.68 61.43 61.43 0 0 1-9.37-29.31 60.42 60.42 0 0 1 13.41-40.36 59.52 59.52 0 0 1 38.58-21.43Z" fill="#fff"/><path d="M381.25 447.09a54.98 54.98 0 0 1 58.67 39.98 55 55 0 0 1-26.76 63.08 54.6 54.6 0 0 1-33.18 6.15c-15.78-1.82-30.34-11-39-24.28-5.54-8.32-8.46-18.03-9.11-27.97-.31-12.55 3.4-25.11 11-35.17a55.12 55.12 0 0 1 38.38-21.8Z" fill="#000"/><path d="M378.26 453.29a49.1 49.1 0 0 1 32.85 5.6c17.73 9.8 28.17 31.01 24.42 51.02A49.54 49.54 0 0 1 391 550.94c-20.15 1.85-40.17-9.84-48.64-28.18a49.26 49.26 0 0 1 5.04-50.33 49.4 49.4 0 0 1 30.86-19.14Z" fill="#fff"/><path d="M526.47 467.49c12.02-2.86 24.89 4.24 29.36 15.65 2.2 6 2.32 12.7-.08 18.66a25.56 25.56 0 0 1-19.7 15.97 25.68 25.68 0 0 1-22.47-7.35 25.7 25.7 0 0 1-5.46-27.34 25.5 25.5 0 0 1 18.35-15.59ZM398.26 478.35c12.27-2.56 24.75 5.81 27.12 18.08.66 5.63.55 11.35-2.68 16.22-4.79 8-14.36 12.76-23.63 11.14-10.66-1.7-19-10.97-19.33-21.79a23.04 23.04 0 0 1 18.52-23.65Z" fill="#000"/></g><g transform="translate(-279 -322)"><path d="M606.99 397.59c1.52-.4 3.26.6 4.74.97-.11 1.2-.17 2.45-.47 3.61-1.58 1.5-3.57 2.6-5.39 3.78-22.77 14.6-46.18 28.4-70.32 40.63-11.53 5.73-23.34 11.3-35.55 15.44-6.86 2.19-13.72 4.28-21 3.44-3.32-.31-6.17-3.02-6.24-6.43-.04-4.22 3-8.6 5.08-12.15 1.28-2.68 4.5-3.04 7-4.12 37.23-13.75 74.43-27.65 111.66-41.45 3.48-1.23 6.9-2.81 10.5-3.72ZM338.99 432.64c29.88 5.94 60.13 12.03 90.02 18.02 2.27.32 4.6.07 6.85.45 2.45 2.3 3.64 6.2 4.54 9.37 1.17 4.09-.15 8.77-3.9 11-4 2.63-9.92 2.17-14.5 1.9-8.75-1-17.42-3.8-25.69-6.74-19.61-7.16-38.69-16.93-56.97-26.97-1.67-.96-3.68-1.94-4.79-3.55-.38-2.88 1.85-4.16 4.44-3.48Z" fill="#000"/></g><g transform="translate(-279 -322)"><path d="M519 572.72c12.29.18 24.45 2.02 35.94 6.5a92.61 92.61 0 0 1 43.87 34.94c1.14 1.53.8 3.58.95 5.41-7.22.57-14.43-.04-21.67.76.12 7.4 0 14.39-3.75 21.02-2.2 3.77-5.7 7.2-10.34 7.12-4.5-.03-8.23-3.43-10.38-7.1-3.71-6.4-4.2-13.83-4.46-21.04-25.38.12-50.77.29-76.16.43-7.35-.26-14.65.67-22 .42-7.53-.2-14.18.78-21.52-.74.07-1.62-.5-4.04.59-5.37 22.4-25.3 54.86-41.81 88.93-42.35Z" fill="#000"/><path d="M508.98 579.48a152.3 152.3 0 0 1 21.04-.02 88.9 88.9 0 0 1 48.66 20.86c-11.23.4-22.44.62-33.68.58-30.98 1.14-62 .83-92.97 1.81 6.13-4.2 12.16-8.37 18.84-11.68a112.4 112.4 0 0 1 38.1-11.54Z" fill="#8F2E45"/><path d="M569 606.4c5.17 0 10.56-.64 15.68.04 2.37 2.05 4.27 4.7 6.31 7.09-5.88.61-11.88.05-17.7.77-1.23 7.11-.33 16.61-3.6 23.41-1.15 2.7-3.33 4.05-5.67 5.57-2.32-1.57-4.53-2.89-5.74-5.56-3.42-6.8-3.33-15.68-4.08-23.16-5.72-.52-11.4-.06-17.2-.19-32.79.26-65.57.28-98.36.54 2.11-2.04 4.57-5.6 7.5-6.24 17.96-.7 35.91-.24 53.86-1.1 11-.5 22-.08 33-.59 12-.24 24-.08 36-.57Z" fill="#6FA942"/></g><g transform="translate(-279 -322)"></g></g></svg>