<svg xmlns="http://www.w3.org/2000/svg" viewBox="0 0 400 400" fill="none" shape-rendering="auto"><metadata xmlns:rdf="http://www.w3.org/1999/02/22-rdf-syntax-ns#" xmlns:xsi="http://www.w3.org/2001/XMLSchema-instance" xmlns:dc="http://purl.org/dc/elements/1.1/" xmlns:dcterms="http://purl.org/dc/terms/"><rdf:RDF><rdf:Description><dc:title>Adventurer Neutral</dc:title><dc:creator>Lisa Wischofsky</dc:creator><dc:source xsi:type="dcterms:URI">https://www.figma.com/community/file/1184595184137881796</dc:source><dcterms:license xsi:type="dcterms:URI">https://creativecommons.org/licenses/by/4.0/</dcterms:license><dc:rights>Remix of „Adventurer Neutral” (https://www.figma.com/community/file/1184595184137881796) by „Lisa Wischofsky”, licensed under „CC BY 4.0” (https://creativecommons.org/licenses/by/4.0/)</dc:rights></rdf:Description></rdf:RDF></metadata><mask id="viewboxMask"><rect width="400" height="400" rx="0" ry="0" x="0" y="0" fill="#fff" /></mask><g mask="url(#viewboxMask)"><rect fill="#ecad80" width="400" height="400" x="0" y="0" /><g transform="translate(-279 -322)"><path d="M551.26 424.28c22.14-1.95 44.44 7.9 57.71 25.75a66.1 66.1 0 0 1 13.2 39.97c-.27 12.75-4.02 25.34-11.26 35.89-8.84 13.1-22.73 23-38.11 26.7a65.2 65.2 0 0 1-73.29-32.14c-7.12-12.81-9.26-27.78-6.96-42.2a65.29 65.29 0 0 1 58.72-53.98Z" fill="#000"/><path d="M549.27 430.26a59.62 59.62 0 0 1 44.29 12.15c14.44 11.16 23.28 29.33 22.8 47.6.05 22.95-14.44 44.84-35.55 53.82-10.6 4.63-22.39 6.3-33.8 4.22a59.6 59.6 0 0 1-40.36-26.68 61.43 61.43 0 0 1-9.37-29.31 60.42 60.42 0 0 1 13.41-40.36 59.52 59.52 0 0 1 38.58-21.43Z" fill="#fff"/><path d="M381.25 447.09a54.98 54.98 0 0 1 58.67 39.98 55 55 0 0 1-26.76 63.08 54.6 54.6 0 0 1-33.18 6.15c-15.78-1.82-30.34-11-39-24.28-5.54-8.32-8.46-18.03-9.11-27.97-.31-12.55 3.4-25.11 11-35.17a55.12 55.12 0 0 1 38.38-21.8Z" fill="#000"/><path d="M378.26 453.29a49.1 49.1 0 0 1 32.85 5.6c17.73 9.8 28.17 31.01 24.42 51.02A49.54 49.54 0 0 1 391 550.94c-20.15 1.85-40.17-9.84-48.64-28.18a49.26 49.26 0 0 1 5.04-50.33 49.4 49.4 0 0 1 30.86-19.14Z" fill="#fff"/><path d="M526.47 467.49c12.02-2.86 24.89 4.24 29.36 15.65 2.2 6 2.32 12.7-.08 18.66a25.56 25.56 0 0 1-19.7 15.97 25.68 25.68 0 0 1-22.47-7.35 25.7 25.7 0 0 1-5.46-27.34 25.5 25.5 0 0 1 18.35-15.59ZM398.26 478.35c12.27-2.56 24.75 5.81 27.12 18.08.66 5.63.55 11.35-2.68 16.22-4.79 8-14.36 12.76-23.63 11.14-10.66-1.7-19-10.97-19.33-21.79a23.04 23.04 0 0 1 18.52-23.65Z" fill="#000"/></g><g transform="translate(-279 -322)"><path d="M606.99 397.59c1.52-.4 3.26.6 4.74.97-.11 1.2-.17 2.45-.47 3.61-1.58 1.5-3.57 2.6-5.39 3.78-22.77 14.6-46.18 28.4-70.32 40.63-11.53 5.73-23.34 11.3-35.55 15.44-6.86 2.19-13.72 4.28-21 3.44-3.32-.31-6.17-3.02-6.24-6.43-.04-4.22 3-8.6 5.08-12.15 1.28-2.68 4.5-3.04 7-4.12 37.23-13.75 74.43-27.65 111.66-41.45 3.48-1.23 6.9-2.81 10.5-3.72ZM338.99 432.64c29.88 5.94 60.13 12.03 90.02 18.02 2.27.32 4.6.07 6.85.45 2.45 2.3 3.64 6.2 4.54 9.37 1.17 4.09-.15 8.77-3.9 11-4 2.63-9.92 2.17-14.5 1.9-8.75-1-17.42-3.8-25.69-6.74-19.61-7.16-38.69-16.93-56.97-26.97-1.67-.96-3.68-1.94-4.79-3.55-.38-2.88 1.85-4.16 4.44-3.48Z" fill="#000"/></g><g transform="translate(-279 -322)"><path d="M535.03 562.93c9.64 1.78 18.64 8.36 22.66 17.4 3.3 7.29 4.24 15.74 3.54 23.67-1.11 11.35-7.23 22.08-15 30.25-8.7 9.5-20.77 15.9-33.23 18.82-20.17 4.42-41.87 5.15-62.03.33-14.26-3.37-27.76-9.79-38.58-19.78-4.47-4.23-8.92-9.14-10.93-15.05-2.64-7.62-2.32-16.43 1.48-23.6a20.2 20.2 0 0 1 17.04-10.63c12.69-.78 23.87 4.19 36 4.7 7.82.14 15.89-1.05 23.18-3.9 11.37-4.8 21.29-14.52 32.86-19.16 7.35-3.04 15.07-4.58 23-3.05Z" fill="#000"/><path d="M538.01 569.9c6.94 2.53 12.73 7.89 15.12 14.96-2.94 2.53-5.85 5.05-9 7.3-3.6 2.63-7.19 4.4-9.93 8.04-3.23 3.94-5.95 9.87-10.37 12.5-3.4-.37-6.67-2.86-9.83-4.05-2.45-.6-5.4.47-7.8 1.06-12.17 3.53-24.57 5.15-37.2 5.87-3.23.07-6.43.2-9.59.95 0 1.24.06 2.45.3 3.68 1.86 1.5 5 1.35 7.3 1.46a191.17 191.17 0 0 0 45-7.29c3.68.11 9.34 5.23 13.89 3.53 5.34-2.5 8.93-9.06 12.36-13.63 1.89-2.72 4.5-4.05 7.17-5.86 3.36-2.22 6.46-4.74 9.56-7.28.65 5.61 1.08 11.34-.35 16.88-2.28 9.36-8.17 17.98-15.08 24.57-9.95 9.67-23.55 14.65-37.07 16.63-11.94 1.57-24.5 2.43-36.48.84-17.37-1.79-35.16-8.03-48.4-19.68-5.06-4.63-9.76-8.85-11.18-15.89-2.35-8.7.37-20.82 10.11-23.62 8.19-1.88 17.76.53 25.88 2.22 12.05 2.8 25.09 2.4 36.82-1.64 13.96-4.91 24.9-17.13 38.79-21.37 6.31-2.14 13.7-2.61 19.98-.17Z" fill="#fff"/></g><g transform="translate(-279 -322)"></g></g></svg>