<svg xmlns="http://www.w3.org/2000/svg" viewBox="0 0 400 400" fill="none" shape-rendering="auto"><metadata xmlns:rdf="http://www.w3.org/1999/02/22-rdf-syntax-ns#" xmlns:xsi="http://www.w3.org/2001/XMLSchema-instance" xmlns:dc="http://purl.org/dc/elements/1.1/" xmlns:dcterms="http://purl.org/dc/terms/"><rdf:RDF><rdf:Description><dc:title>Adventurer Neutral</dc:title><dc:creator>Lisa Wischofsky</dc:creator><dc:source xsi:type="dcterms:URI">https://www.figma.com/community/file/1184595184137881796</dc:source><dcterms:license xsi:type="dcterms:URI">https://creativecommons.org/licenses/by/4.0/</dcterms:license><dc:rights>Remix of „Adventurer Neutral” (https://www.figma.com/community/file/1184595184137881796) by „Lisa Wischofsky”, licensed under „CC BY 4.0” (https://creativecommons.org/licenses/by/4.0/)</dc:rights></rdf:Description></rdf:RDF></metadata><mask id="viewboxMask"><rect width="400" height="400" rx="0" ry="0" x="0" y="0" fill="#fff" /></mask><g mask="url(#viewboxMask)"><rect fill="#ecad80" width="400" height="400" x="0" y="0" /><g transform="translate(-279 -322)"><path d="M551.26 424.28c22.14-1.95 44.44 7.9 57.71 25.75a66.1 66.1 0 0 1 13.2 39.97c-.27 12.75-4.02 25.34-11.26 35.89-8.84 13.1-22.73 23-38.11 26.7a65.2 65.2 0 0 1-73.29-32.14c-7.12-12.81-9.26-27.78-6.96-42.2a65.29 65.29 0 0 1 58.72-53.98Z" fill="#000"/><path d="M549.27 430.26a59.62 59.62 0 0 1 44.29 12.15c14.44 11.16 23.28 29.33 22.8 47.6.05 22.95-14.44 44.84-35.55 53.82-10.6 4.63-22.39 6.3-33.8 4.22a59.6 59.6 0 0 1-40.36-26.68 61.43 61.43 0 0 1-9.37-29.31 60.42 60.42 0 0 1 13.41-40.36 59.52 59.52 0 0 1 38.58-21.43Z" fill="#fff"/><path d="M381.25 447.09a54.98 54.98 0 0 1 58.67 39.98 55 55 0 0 1-26.76 63.08 54.6 54.6 0 0 1-33.18 6.15c-15.78-1.82-30.34-11-39-24.28-5.54-8.32-8.46-18.03-9.11-27.97-.31-12.55 3.4-25.11 11-35.17a55.12 55.12 0 0 1 38.38-21.8Z" fill="#000"/><path d="M378.26 453.29a49.1 49.1 0 0 1 32.85 5.6c17.73 9.8 28.17 31.01 24.42 51.02A49.54 49.54 0 0 1 391 550.94c-20.15 1.85-40.17-9.84-48.64-28.18a49.26 49.26 0 0 1 5.04-50.33 49.4 49.4 0 0 1 30.86-19.14Z" fill="#fff"/><path d="M526.47 467.49c12.02-2.86 24.89 4.24 29.36 15.65 2.2 6 2.32 12.7-.08 18.66a25.56 25.56 0 0 1-19.7 15.97 25.68 25.68 0 0 1-22.47-7.35 25.7 25.7 0 0 1-5.46-27.34 25.5 25.5 0 0 1 18.35-15.59ZM398.26 478.35c12.27-2.56 24.75 5.81 27.12 18.08.66 5.63.55 11.35-2.68 16.22-4.79 8-14.36 12.76-23.63 11.14-10.66-1.7-19-10.97-19.33-21.79a23.04 23.04 0 0 1 18.52-23.65Z" fill="#000"/></g><g transform="translate(-279 -322)"><path d="M606.99 397.59c1.52-.4 3.26.6 4.74.97-.11 1.2-.17 2.45-.47 3.61-1.58 1.5-3.57 2.6-5.39 3.78-22.77 14.6-46.18 28.4-70.32 40.63-11.53 5.73-23.34 11.3-35.55 15.44-6.86 2.19-13.72 4.28-21 3.44-3.32-.31-6.17-3.02-6.24-6.43-.04-4.22 3-8.6 5.08-12.15 1.28-2.68 4.5-3.04 7-4.12 37.23-13.75 74.43-27.65 111.66-41.45 3.48-1.23 6.9-2.81 10.5-3.72ZM338.99 432.64c29.88 5.94 60.13 12.03 90.02 18.02 2.27.32 4.6.07 6.85.45 2.45 2.3 3.64 6.2 4.54 9.37 1.17 4.09-.15 8.77-3.9 11-4 2.63-9.92 2.17-14.5 1.9-8.75-1-17.42-3.8-25.69-6.74-19.61-7.16-38.69-16.93-56.97-26.97-1.67-.96-3.68-1.94-4.79-3.55-.38-2.88 1.85-4.16 4.44-3.48Z" fill="#000"/></g><g transform="translate(-279 -322)"><path d="M514.98 571.8c9.94-.79 20.34-.67 29.5 3.7 4.76 2.28 8.77 6.1 9.74 11.45.87 5.24-1.16 9.93-4.1 14.14-5.1 7.1-13.02 12.35-20.61 16.48-16.5 8.76-34.08 12.05-52.5 13.76-20.25 3.08-41.64-1.62-59.12-12.17-6.2-3.9-12.82-9.26-16.03-16-2.56-5.26-2.25-12 1.93-16.37 4.77-5.2 12.43-7.15 19.2-7.88 15.6-1.27 30.57 2.31 44.79 8.5a117.73 117.73 0 0 1 47.2-15.61Z" fill="#000"/><path d="M540.41 580c-3.76 3.21-7.89 5.79-12.13 8.3-2.67 1.53-3.75 4.13-5.44 6.6a30.23 30.23 0 0 1-5.75 6.71c-3.02-1.1-5.96-2.85-9.11-3.5-3.03.45-5.9 1.87-8.86 2.66-10.02 2.86-20.67 5-31.12 4.92-2.95-.04-5.77.19-8.66.8.26 2.48-.5 4.68 2.82 5.02 14.67.86 29.74-2 43.63-6.66 4.74-2.07 7.69 3.08 12.84 1.72 4.35-1.27 7.37-6.6 9.92-10.06 1.78-2.8 4.43-4.12 7.14-5.82 3.66-2.24 6.97-4.85 10.35-7.47 1.44 2.56 3.17 4.68 2.42 7.82-1.4 6.39-6.6 11-11.48 14.92-12.52 9.5-28.96 14.76-44.24 17.66-14.5 1.98-28 4.19-42.61 1.47-12.77-2.46-26.17-7.5-36.14-16.1-3.77-3.4-8.37-8.52-7.81-14 .33-3.74 3.92-6.31 7.09-7.71 7.95-3.35 16.73-3.08 25.15-2.22 8.7 1.23 17.39 3.52 25.38 7.26 1.55.63 3.37 1.64 5.08 1.52 3.1-1.25 5.75-3.55 8.75-5.06a101.93 101.93 0 0 1 28.23-9.73c11.45-2.02 23.37-2.95 34.55.95Z" fill="#fff"/></g><g transform="translate(-279 -322)"></g></g></svg>