<svg xmlns="http://www.w3.org/2000/svg" viewBox="0 0 400 400" fill="none" shape-rendering="auto"><metadata xmlns:rdf="http://www.w3.org/1999/02/22-rdf-syntax-ns#" xmlns:xsi="http://www.w3.org/2001/XMLSchema-instance" xmlns:dc="http://purl.org/dc/elements/1.1/" xmlns:dcterms="http://purl.org/dc/terms/"><rdf:RDF><rdf:Description><dc:title>Adventurer Neutral</dc:title><dc:creator>Lisa Wischofsky</dc:creator><dc:source xsi:type="dcterms:URI">https://www.figma.com/community/file/1184595184137881796</dc:source><dcterms:license xsi:type="dcterms:URI">https://creativecommons.org/licenses/by/4.0/</dcterms:license><dc:rights>Remix of „Adventurer Neutral” (https://www.figma.com/community/file/1184595184137881796) by „Lisa Wischofsky”, licensed under „CC BY 4.0” (https://creativecommons.org/licenses/by/4.0/)</dc:rights></rdf:Description></rdf:RDF></metadata><mask id="viewboxMask"><rect width="400" height="400" rx="0" ry="0" x="0" y="0" fill="#fff" /></mask><g mask="url(#viewboxMask)"><rect fill="#ecad80" width="400" height="400" x="0" y="0" /><g transform="translate(-279 -322)"><path d="M551.26 424.28c22.14-1.95 44.44 7.9 57.71 25.75a66.1 66.1 0 0 1 13.2 39.97c-.27 12.75-4.02 25.34-11.26 35.89-8.84 13.1-22.73 23-38.11 26.7a65.2 65.2 0 0 1-73.29-32.14c-7.12-12.81-9.26-27.78-6.96-42.2a65.29 65.29 0 0 1 58.72-53.98Z" fill="#000"/><path d="M549.27 430.26a59.62 59.62 0 0 1 44.29 12.15c14.44 11.16 23.28 29.33 22.8 47.6.05 22.95-14.44 44.84-35.55 53.82-10.6 4.63-22.39 6.3-33.8 4.22a59.6 59.6 0 0 1-40.36-26.68 61.43 61.43 0 0 1-9.37-29.31 60.42 60.42 0 0 1 13.41-40.36 59.52 59.52 0 0 1 38.58-21.43Z" fill="#fff"/><path d="M381.25 447.09a54.98 54.98 0 0 1 58.67 39.98 55 55 0 0 1-26.76 63.08 54.6 54.6 0 0 1-33.18 6.15c-15.78-1.82-30.34-11-39-24.28-5.54-8.32-8.46-18.03-9.11-27.97-.31-12.55 3.4-25.11 11-35.17a55.12 55.12 0 0 1 38.38-21.8Z" fill="#000"/><path d="M378.26 453.29a49.1 49.1 0 0 1 32.85 5.6c17.73 9.8 28.17 31.01 24.42 51.02A49.54 49.54 0 0 1 391 550.94c-20.15 1.85-40.17-9.84-48.64-28.18a49.26 49.26 0 0 1 5.04-50.33 49.4 49.4 0 0 1 30.86-19.14Z" fill="#fff"/><path d="M526.47 467.49c12.02-2.86 24.89 4.24 29.36 15.65 2.2 6 2.32 12.7-.08 18.66a25.56 25.56 0 0 1-19.7 15.97 25.68 25.68 0 0 1-22.47-7.35 25.7 25.7 0 0 1-5.46-27.34 25.5 25.5 0 0 1 18.35-15.59ZM398.26 478.35c12.27-2.56 24.75 5.81 27.12 18.08.66 5.63.55 11.35-2.68 16.22-4.79 8-14.36 12.76-23.63 11.14-10.66-1.7-19-10.97-19.33-21.79a23.04 23.04 0 0 1 18.52-23.65Z" fill="#000"/></g><g transform="translate(-279 -322)"><path d="M606.99 397.59c1.52-.4 3.26.6 4.74.97-.11 1.2-.17 2.45-.47 3.61-1.58 1.5-3.57 2.6-5.39 3.78-22.77 14.6-46.18 28.4-70.32 40.63-11.53 5.73-23.34 11.3-35.55 15.44-6.86 2.19-13.72 4.28-21 3.44-3.32-.31-6.17-3.02-6.24-6.43-.04-4.22 3-8.6 5.08-12.15 1.28-2.68 4.5-3.04 7-4.12 37.23-13.75 74.43-27.65 111.66-41.45 3.48-1.23 6.9-2.81 10.5-3.72ZM338.99 432.64c29.88 5.94 60.13 12.03 90.02 18.02 2.27.32 4.6.07 6.85.45 2.45 2.3 3.64 6.2 4.54 9.37 1.17 4.09-.15 8.77-3.9 11-4 2.63-9.92 2.17-14.5 1.9-8.75-1-17.42-3.8-25.69-6.74-19.61-7.16-38.69-16.93-56.97-26.97-1.67-.96-3.68-1.94-4.79-3.55-.38-2.88 1.85-4.16 4.44-3.48Z" fill="#000"/></g><g transform="translate(-279 -322)"><path d="M517.9 557.82c1.53.3 2.76 1.6 2.73 3.2-7.1 16.81-15.06 33.2-25.17 48.42-4.62 6.97-9.13 14.14-14.43 20.6-2.18 3.28-7.96 2.93-10.79.73a126.22 126.22 0 0 1-19.13-16.87c-9.22-10.37-17.94-20.12-24.71-32.38-.81-1.89-2.3-3.93-.75-5.87.54-1.24 2.97-.86 3.53.16a140.4 140.4 0 0 0 18.52 25.5c6.97 8.1 14.24 15.75 22.74 22.28 1.12.8 2.37 1.74 3.7 2.1 2.62.27 3.9-1.32 5.33-3.2 13.52-19.02 25.72-38.75 34.68-60.37.81-2 1.46-3.68 3.75-4.3Z" fill="#000"/></g><g transform="translate(-279 -322)"><path fill-rule="evenodd" clip-rule="evenodd" d="M608 415.8c6.19-.15 12.37-.17 18.55-.18 4.48-.01 8.97-.03 13.45-.1.56.02 1.13.02 1.7.02 3.1 0 6.25.02 9.3.5 2.58.53 5.61 1.94 6.1 4.83a38.9 38.9 0 0 1-1.15 17c-.46 1.76-1.74 2.09-3.35 2.33-3.46.36-6.95.57-10.42.78l-3.76.23c.12 4.28.38 8.64.64 13.02.7 11.72 1.4 23.63-.44 34.8a87.76 87.76 0 0 1-5.73 21.83c-3.11 8.55-9.1 16.19-15.42 22.62-9.83 10.36-22.25 18.39-36.2 21.8a115.5 115.5 0 0 1-33.23 2.17c-9.22-1.58-18.8-3.87-27.06-8.4-10.5-6.05-18.47-15.05-24.78-25.29-8.17-12.62-11.9-27.18-15.47-41.59-.52-2.19-.84-4.45-1.17-6.71-.42-2.83-.83-5.67-1.61-8.37-.48-1.78-2.64-3.07-4.17-3.9-6.7-3.36-16.4-.94-18.99 6.6-.5 2.84-.55 5.75-.6 8.66-.06 2.86-.11 5.73-.59 8.55-2 13.03-4.77 26.14-10.56 38.06-5.55 11.58-11.7 22.03-22.47 29.5-12.88 7.76-28.34 13.44-43.57 11.92-6.86-.15-14.05-1.4-20.36-4.13-6.87-3.71-13.8-8.11-18.84-14.16-10.32-12.28-16.95-27.7-20.8-43.17-1.86-6.83-3.03-13.81-2.96-20.9-1.64.23-3.27.55-4.9.87-2.4.46-4.79.93-7.2 1.16a5.27 5.27 0 0 1-5.36-2.69c-1.96-3.76-2.46-8.38-1.77-12.53l.12-.54c.23-1.1.47-2.3 1.61-2.79 27.43-12.56 55.94-20.6 85.48-26.45 11.24-2.31 22.47-3.81 33.98-3.07a61.95 61.95 0 0 1 28.86 7.05c10.79 4.81 24.5 5.41 35.15-.12 3.04-1.48 4.93-3.68 6.93-5.99a39.5 39.5 0 0 1 3.95-4.14c9.81-9.08 23.1-13.26 36.12-14.8 13.1-2.37 26.26-3 39.52-3.65l2.5-.12c5.54-.15 11.1-.15 16.65-.15 7.44 0 14.89 0 22.32-.36Zm-23 6.26c8.34-.34 16.32-.45 24.15 2.9.65.3 1.37.6 2.11.9 3.17 1.31 6.86 2.83 7.89 5.97 5.81 12.4 8.22 26.56 8.39 40.17.56 12.44-.87 25.5-5.2 37.22-3.72 9.79-10.5 17.11-18.26 23.88-5.21 4.32-11.62 7.5-17.78 10.22-9.15 3.83-19.3 6.8-29.3 6.15-5.8-.34-11.57-1.78-17.2-3.18l-.87-.23c-5.96-1.47-10.69-4.56-15.7-7.85l-.86-.56c-6.8-4.54-12.23-10.46-17.08-16.98-2.77-3.93-4.56-8.67-6.3-13.25l-1.22-3.16c-4.64-11.94-5.98-24.55-5.87-37.28.1-7.74 1.2-16.94 5.51-23.55 5.14-6.46 12.01-12.24 19.83-15.08 9.27-2.8 19.13-4.25 28.78-4.96 11.57-1.28 23.17-1.3 34.65-1.33H585Zm-172.35 22.06c-.9-.02-1.78-.04-2.66-.08-8.61-.87-17.85.94-26.5 2.63l-3.48.68c-2.29.52-4.57 1-6.84 1.5-9.4 2.01-18.63 4-27.68 7.65-.9.36-1.84.71-2.78 1.07-5.77 2.17-12.01 4.53-14.95 10.19-4.84 9.87-3.73 19.61-2.56 29.93l.37 3.3c1.93 11.76 6.83 23.24 13.14 33.32 5.06 8.01 10.9 15.08 19.42 19.57 12.78 7.1 27.95 6.15 41.4 1.57 11.36-4.43 21.76-9.82 28.56-20.38 8.84-14.04 13.92-30.65 15.47-47.12.91-9.38-.1-18.83-2.68-27.88-.46-1.39-.98-2.92-1.89-4.09-5.19-5.6-11.6-9.87-19.19-11.35-2.33-.4-4.76-.46-7.15-.51Z" fill="#000"/></g></g></svg>