<svg xmlns="http://www.w3.org/2000/svg" viewBox="0 0 400 400" fill="none" shape-rendering="auto"><metadata xmlns:rdf="http://www.w3.org/1999/02/22-rdf-syntax-ns#" xmlns:xsi="http://www.w3.org/2001/XMLSchema-instance" xmlns:dc="http://purl.org/dc/elements/1.1/" xmlns:dcterms="http://purl.org/dc/terms/"><rdf:RDF><rdf:Description><dc:title>Adventurer Neutral</dc:title><dc:creator>Lisa Wischofsky</dc:creator><dc:source xsi:type="dcterms:URI">https://www.figma.com/community/file/1184595184137881796</dc:source><dcterms:license xsi:type="dcterms:URI">https://creativecommons.org/licenses/by/4.0/</dcterms:license><dc:rights>Remix of „Adventurer Neutral” (https://www.figma.com/community/file/1184595184137881796) by „Lisa Wischofsky”, licensed under „CC BY 4.0” (https://creativecommons.org/licenses/by/4.0/)</dc:rights></rdf:Description></rdf:RDF></metadata><mask id="viewboxMask"><rect width="400" height="400" rx="0" ry="0" x="0" y="0" fill="#fff" /></mask><g mask="url(#viewboxMask)"><rect fill="#ecad80" width="400" height="400" x="0" y="0" /><g transform="translate(-279 -322)"><path d="M551.26 424.28c22.14-1.95 44.44 7.9 57.71 25.75a66.1 66.1 0 0 1 13.2 39.97c-.27 12.75-4.02 25.34-11.26 35.89-8.84 13.1-22.73 23-38.11 26.7a65.2 65.2 0 0 1-73.29-32.14c-7.12-12.81-9.26-27.78-6.96-42.2a65.29 65.29 0 0 1 58.72-53.98Z" fill="#000"/><path d="M549.27 430.26a59.62 59.62 0 0 1 44.29 12.15c14.44 11.16 23.28 29.33 22.8 47.6.05 22.95-14.44 44.84-35.55 53.82-10.6 4.63-22.39 6.3-33.8 4.22a59.6 59.6 0 0 1-40.36-26.68 61.43 61.43 0 0 1-9.37-29.31 60.42 60.42 0 0 1 13.41-40.36 59.52 59.52 0 0 1 38.58-21.43Z" fill="#fff"/><path d="M381.25 447.09a54.98 54.98 0 0 1 58.67 39.98 55 55 0 0 1-26.76 63.08 54.6 54.6 0 0 1-33.18 6.15c-15.78-1.82-30.34-11-39-24.28-5.54-8.32-8.46-18.03-9.11-27.97-.31-12.55 3.4-25.11 11-35.17a55.12 55.12 0 0 1 38.38-21.8Z" fill="#000"/><path d="M378.26 453.29a49.1 49.1 0 0 1 32.85 5.6c17.73 9.8 28.17 31.01 24.42 51.02A49.54 49.54 0 0 1 391 550.94c-20.15 1.85-40.17-9.84-48.64-28.18a49.26 49.26 0 0 1 5.04-50.33 49.4 49.4 0 0 1 30.86-19.14Z" fill="#fff"/><path d="M526.47 467.49c12.02-2.86 24.89 4.24 29.36 15.65 2.2 6 2.32 12.7-.08 18.66a25.56 25.56 0 0 1-19.7 15.97 25.68 25.68 0 0 1-22.47-7.35 25.7 25.7 0 0 1-5.46-27.34 25.5 25.5 0 0 1 18.35-15.59ZM398.26 478.35c12.27-2.56 24.75 5.81 27.12 18.08.66 5.63.55 11.35-2.68 16.22-4.79 8-14.36 12.76-23.63 11.14-10.66-1.7-19-10.97-19.33-21.79a23.04 23.04 0 0 1 18.52-23.65Z" fill="#000"/></g><g transform="translate(-279 -322)"><path d="M606.99 397.59c1.52-.4 3.26.6 4.74.97-.11 1.2-.17 2.45-.47 3.61-1.58 1.5-3.57 2.6-5.39 3.78-22.77 14.6-46.18 28.4-70.32 40.63-11.53 5.73-23.34 11.3-35.55 15.44-6.86 2.19-13.72 4.28-21 3.44-3.32-.31-6.17-3.02-6.24-6.43-.04-4.22 3-8.6 5.08-12.15 1.28-2.68 4.5-3.04 7-4.12 37.23-13.75 74.43-27.65 111.66-41.45 3.48-1.23 6.9-2.81 10.5-3.72ZM338.99 432.64c29.88 5.94 60.13 12.03 90.02 18.02 2.27.32 4.6.07 6.85.45 2.45 2.3 3.64 6.2 4.54 9.37 1.17 4.09-.15 8.77-3.9 11-4 2.63-9.92 2.17-14.5 1.9-8.75-1-17.42-3.8-25.69-6.74-19.61-7.16-38.69-16.93-56.97-26.97-1.67-.96-3.68-1.94-4.79-3.55-.38-2.88 1.85-4.16 4.44-3.48Z" fill="#000"/></g><g transform="translate(-279 -322)"><path d="M517.9 557.82c1.53.3 2.76 1.6 2.73 3.2-7.1 16.81-15.06 33.2-25.17 48.42-4.62 6.97-9.13 14.14-14.43 20.6-2.18 3.28-7.96 2.93-10.79.73a126.22 126.22 0 0 1-19.13-16.87c-9.22-10.37-17.94-20.12-24.71-32.38-.81-1.89-2.3-3.93-.75-5.87.54-1.24 2.97-.86 3.53.16a140.4 140.4 0 0 0 18.52 25.5c6.97 8.1 14.24 15.75 22.74 22.28 1.12.8 2.37 1.74 3.7 2.1 2.62.27 3.9-1.32 5.33-3.2 13.52-19.02 25.72-38.75 34.68-60.37.81-2 1.46-3.68 3.75-4.3Z" fill="#000"/></g><g transform="translate(-279 -322)"><path fill-rule="evenodd" clip-rule="evenodd" d="M577.04 416.1c16.03 2.47 31.24 9.63 42.99 20.86a80.3 80.3 0 0 1 24.24 45.54c1.78 12.34 1.1 25.15-2.8 37.04a79.23 79.23 0 0 1-25.44 37.5A79.64 79.64 0 0 1 564 575.23c-14.18-.1-28.4-4.38-40.5-11.72-23.74-14.43-38.9-41.4-38.21-69.26-4.95-5.36-10.7-9.6-18.3-9.71-7.78.07-14.32 5.68-17.23 12.6.78 6.7 1.53 13.27.63 20.02-1.7 15.12-8 29.64-18.58 40.66A70.05 70.05 0 0 1 382 579.83a69.6 69.6 0 0 1-35.05-8.76 69.78 69.78 0 0 1-32.3-38.71c-3.43-10.4-4.98-22.02-2.92-32.86a69.67 69.67 0 0 1 23.86-42.88c12.8-11.05 29.55-16.8 46.4-16.77 12.06.48 23.94 3.63 34.33 9.83a69.78 69.78 0 0 1 30.66 37.6c4.88-5.7 11.3-9.9 19.02-9.94 7.36-.37 14.18 2.55 19.7 7.27 1.7-8.66 3.83-17.07 7.9-24.97 8.88-18.08 24.8-32.3 43.62-39.33 12.7-4.85 26.4-5.96 39.82-4.2Zm-25.54 7.81c19.43-3.94 40.2.78 56.21 12.38 21.3 15.03 33 41.83 29.67 67.68a72.72 72.72 0 0 1-23.86 45.57 72.4 72.4 0 0 1-38.56 17.7 72.55 72.55 0 0 1-71.1-33.11c-9.1-14.4-13.1-32.28-10.5-49.16a72.47 72.47 0 0 1 18.06-38.53 72.54 72.54 0 0 1 40.08-22.53Zm-147.37 27.97c-11.18-4.55-23.8-5.55-35.62-3.26a62.64 62.64 0 0 0-36.57 22.34c-8.74 10.92-13.81 25.01-13.56 39.04-.22 16.16 6.52 32.29 17.9 43.73a62.42 62.42 0 0 0 30 17c15.46 3.52 32.04 1.39 45.78-6.67 15.41-8.7 26.57-24.55 30.12-41.82 2.14-12.06 1.31-24.55-3.44-35.92a62.7 62.7 0 0 0-34.61-34.44Z" fill="#000"/></g></g></svg>